<svg xmlns="http://www.w3.org/2000/svg" version="1.1" viewBox="0 0 2000 2000" width="2000" height="2000">
<!--ITEM 1--><g><defs><clipPath id="clip-path-id-viewbox-item-1"><rect x="0.0" y="0.0" width="465.303" height="376.519"/></clipPath></defs><g transform="translate(937.0 1058.0) rotate(0.0 508.0 410.0) scale(2.183523424521226 2.177844942751893)"><g clip-path="url(#clip-path-id-viewbox-item-1)" transform="translate(-0.0 -0.0)"><g id="Layer_3-i1">
</g>
<g>
	<path fill="#e27bf5" d="M434.229,375.019c25.208-25.667,40.208-69.333,20.542-82.333c-31.226-20.641-82.667,45-82.667,45   c51.333-68.667,63.167-121.5,50.333-141c-19.38-29.448-65.667,20-65.667,20c37-79.333,36.442-182-5.333-193.142   c-58.309-15.551-104.667,98.142-104.667,98.142s-10-125.667-55.333-120c-48.62,6.078-42,127.333-42,127.333s-34-65.333-72-47.333   s-8,98-8,98c-22-9.333-70.481-6.956-67.833,67c0.6,16.763,2.639,32.479,5.438,46.771c0.311,1.591,0.632,3.165,0.962,4.723   c1.659,9.839,5.659,19.839,7.831,29.752c0.401,1.27,0.805,2.522,1.21,3.752c8.906,27.051,18.309,43.336,18.309,43.336"/>
	<g>
		<path fill="#e27bf5" d="M434.229,376.519H35.355c-0.536,0-1.031-0.286-1.299-0.75c-0.095-0.164-9.583-16.729-18.435-43.617    c-0.407-1.234-0.812-2.492-1.216-3.769c-0.013-0.043-0.025-0.087-0.035-0.131c-0.944-4.308-2.267-8.73-3.546-13.008    c-1.649-5.514-3.354-11.215-4.299-16.815c-0.319-1.505-0.642-3.086-0.955-4.685c-3.071-15.68-4.91-31.495-5.465-47.005    c-1.406-39.287,11.784-56.812,23.097-64.596c14.428-9.929,31.881-9.074,43.752-5.011c-2.194-6.499-7.144-22.427-9.255-39.514    c-3.685-29.815,2.918-49.626,19.097-57.289c16.183-7.664,34.158-1.702,51.985,17.244c8.634,9.177,15.322,19.394,18.954,25.437    c-0.236-10.468-0.238-32.936,2.986-55.591c5.976-41.991,19.613-64.608,40.532-67.223c6.99-0.876,13.582,1.165,19.593,6.062    c25.79,21.006,34.726,88.982,36.873,109.508c4.315-9.544,14.379-30.328,28.299-49.854c25.095-35.2,51.308-50.353,75.807-43.818    c10.013,2.671,18.012,10.283,23.776,22.625c8.507,18.217,11.493,45.74,8.409,77.5c-2.876,29.612-10.855,60.499-22.628,87.848    c3.051-2.835,7.135-6.411,11.773-9.913c13.576-10.252,25.222-15.037,34.608-14.243c6.595,0.563,11.955,3.911,15.929,9.951    c7.015,10.659,6.685,29.604-0.929,53.345c-6.668,20.791-18.571,44.211-34.821,68.659c18.071-17.946,46.796-40.219,67.657-26.431    c5.465,3.611,8.658,9.45,9.492,17.352c2.008,19.021-10.8,47.946-29.791,67.283C435.017,376.357,434.632,376.519,434.229,376.519z     M36.236,373.519h397.361c18.185-18.755,30.417-46.344,28.51-64.418c-0.736-6.968-3.482-12.069-8.163-15.164    c-29.718-19.638-80.153,44.028-80.659,44.675c-0.507,0.646-1.44,0.764-2.093,0.266c-0.652-0.5-0.781-1.432-0.29-2.09    c51.865-69.378,62.421-120.83,50.282-139.277c-3.492-5.306-7.965-8.122-13.676-8.609c-20.743-1.808-49.356,28.503-49.643,28.811    c-0.504,0.538-1.324,0.632-1.935,0.217c-0.611-0.412-0.831-1.208-0.519-1.876c27.147-58.207,34.821-132.908,17.47-170.063    c-5.371-11.501-12.715-18.564-21.831-20.996c-56.367-15.017-102.433,96.135-102.891,97.26c-0.262,0.644-0.932,1.017-1.619,0.916    c-0.687-0.106-1.21-0.671-1.265-1.363c-0.071-0.895-7.457-89.708-36.326-113.221c-5.351-4.357-11.179-6.174-17.326-5.41    c-46.682,5.835-40.754,124.564-40.688,125.763c0.038,0.706-0.42,1.342-1.102,1.528s-1.4-0.127-1.727-0.754    c-0.333-0.64-33.769-63.844-70.027-46.67c-36.32,17.204-7.532,95.331-7.238,96.118c0.21,0.562,0.066,1.194-0.367,1.609    c-0.433,0.413-1.072,0.53-1.624,0.298c-11.944-5.068-30.165-5.937-43.949,3.549c-15.336,10.552-22.874,31.997-21.8,62.017    c0.549,15.353,2.37,31.01,5.411,46.536c0.31,1.583,0.63,3.15,0.958,4.701c0.925,5.479,2.604,11.089,4.227,16.515    c1.289,4.31,2.621,8.764,3.588,13.159c0.393,1.243,0.788,2.468,1.184,3.67C26.166,354.588,34.322,370.032,36.236,373.519z"/>
	</g>
</g>
</g></g></g><!--ITEM 2--><g><defs><clipPath id="clip-path-id-viewbox-item-2"><rect x="0.0" y="0.0" width="465.303" height="376.519"/></clipPath></defs><g transform="translate(835.0 1237.0) rotate(0.0 -396.0 320.0) scale(-1.7021166852567038 1.6997814187331848)"><g clip-path="url(#clip-path-id-viewbox-item-2)" transform="translate(-0.0 -0.0)"><g id="Layer_3-i2">
</g>
<g>
	<path fill="#e27bf5" d="M434.229,375.019c25.208-25.667,40.208-69.333,20.542-82.333c-31.226-20.641-82.667,45-82.667,45   c51.333-68.667,63.167-121.5,50.333-141c-19.38-29.448-65.667,20-65.667,20c37-79.333,36.442-182-5.333-193.142   c-58.309-15.551-104.667,98.142-104.667,98.142s-10-125.667-55.333-120c-48.62,6.078-42,127.333-42,127.333s-34-65.333-72-47.333   s-8,98-8,98c-22-9.333-70.481-6.956-67.833,67c0.6,16.763,2.639,32.479,5.438,46.771c0.311,1.591,0.632,3.165,0.962,4.723   c1.659,9.839,5.659,19.839,7.831,29.752c0.401,1.27,0.805,2.522,1.21,3.752c8.906,27.051,18.309,43.336,18.309,43.336"/>
	<g>
		<path fill="#e27bf5" d="M434.229,376.519H35.355c-0.536,0-1.031-0.286-1.299-0.75c-0.095-0.164-9.583-16.729-18.435-43.617    c-0.407-1.234-0.812-2.492-1.216-3.769c-0.013-0.043-0.025-0.087-0.035-0.131c-0.944-4.308-2.267-8.73-3.546-13.008    c-1.649-5.514-3.354-11.215-4.299-16.815c-0.319-1.505-0.642-3.086-0.955-4.685c-3.071-15.68-4.91-31.495-5.465-47.005    c-1.406-39.287,11.784-56.812,23.097-64.596c14.428-9.929,31.881-9.074,43.752-5.011c-2.194-6.499-7.144-22.427-9.255-39.514    c-3.685-29.815,2.918-49.626,19.097-57.289c16.183-7.664,34.158-1.702,51.985,17.244c8.634,9.177,15.322,19.394,18.954,25.437    c-0.236-10.468-0.238-32.936,2.986-55.591c5.976-41.991,19.613-64.608,40.532-67.223c6.99-0.876,13.582,1.165,19.593,6.062    c25.79,21.006,34.726,88.982,36.873,109.508c4.315-9.544,14.379-30.328,28.299-49.854c25.095-35.2,51.308-50.353,75.807-43.818    c10.013,2.671,18.012,10.283,23.776,22.625c8.507,18.217,11.493,45.74,8.409,77.5c-2.876,29.612-10.855,60.499-22.628,87.848    c3.051-2.835,7.135-6.411,11.773-9.913c13.576-10.252,25.222-15.037,34.608-14.243c6.595,0.563,11.955,3.911,15.929,9.951    c7.015,10.659,6.685,29.604-0.929,53.345c-6.668,20.791-18.571,44.211-34.821,68.659c18.071-17.946,46.796-40.219,67.657-26.431    c5.465,3.611,8.658,9.45,9.492,17.352c2.008,19.021-10.8,47.946-29.791,67.283C435.017,376.357,434.632,376.519,434.229,376.519z     M36.236,373.519h397.361c18.185-18.755,30.417-46.344,28.51-64.418c-0.736-6.968-3.482-12.069-8.163-15.164    c-29.718-19.638-80.153,44.028-80.659,44.675c-0.507,0.646-1.44,0.764-2.093,0.266c-0.652-0.5-0.781-1.432-0.29-2.09    c51.865-69.378,62.421-120.83,50.282-139.277c-3.492-5.306-7.965-8.122-13.676-8.609c-20.743-1.808-49.356,28.503-49.643,28.811    c-0.504,0.538-1.324,0.632-1.935,0.217c-0.611-0.412-0.831-1.208-0.519-1.876c27.147-58.207,34.821-132.908,17.47-170.063    c-5.371-11.501-12.715-18.564-21.831-20.996c-56.367-15.017-102.433,96.135-102.891,97.26c-0.262,0.644-0.932,1.017-1.619,0.916    c-0.687-0.106-1.21-0.671-1.265-1.363c-0.071-0.895-7.457-89.708-36.326-113.221c-5.351-4.357-11.179-6.174-17.326-5.41    c-46.682,5.835-40.754,124.564-40.688,125.763c0.038,0.706-0.42,1.342-1.102,1.528s-1.4-0.127-1.727-0.754    c-0.333-0.64-33.769-63.844-70.027-46.67c-36.32,17.204-7.532,95.331-7.238,96.118c0.21,0.562,0.066,1.194-0.367,1.609    c-0.433,0.413-1.072,0.53-1.624,0.298c-11.944-5.068-30.165-5.937-43.949,3.549c-15.336,10.552-22.874,31.997-21.8,62.017    c0.549,15.353,2.37,31.01,5.411,46.536c0.31,1.583,0.63,3.15,0.958,4.701c0.925,5.479,2.604,11.089,4.227,16.515    c1.289,4.31,2.621,8.764,3.588,13.159c0.393,1.243,0.788,2.468,1.184,3.67C26.166,354.588,34.322,370.032,36.236,373.519z"/>
	</g>
</g>
</g></g></g><!--ITEM 3--><g><defs><clipPath id="clip-path-id-viewbox-item-3"><rect x="0.0" y="0.0" width="235.983" height="330.612"/></clipPath></defs><g transform="translate(1102.0 252.0) rotate(78.07548466516668 158.5 223.5) scale(1.343317103350665 1.352038038546695)"><g clip-path="url(#clip-path-id-viewbox-item-3)" transform="translate(-0.0 -0.0)"><path d="M13.989,330.612a13.528,13.528,0,0,1-2.4-.214c-.456-.082-.69-.127-.69-.127a13.5,13.5,0,0,1,5.154-26.5l.3.055a13.5,13.5,0,0,1-2.368,26.79Z" fill="#22183B"/><path d="M76.394,330.538a13.5,13.5,0,0,1-2-26.851l.838-.129A13.5,13.5,0,0,1,79.49,330.22l-1.067.166A13.716,13.716,0,0,1,76.394,330.538Zm60-20.226a13.5,13.5,0,0,1-6.666-25.248l.707-.406A13.5,13.5,0,0,1,144,308q-.48.279-.965.552A13.438,13.438,0,0,1,136.394,310.312Zm47.131-41.98a13.5,13.5,0,0,1-10.849-21.521l.508-.693a13.5,13.5,0,0,1,21.843,15.871l-.632.863A13.484,13.484,0,0,1,183.525,268.332Zm27.986-56.774a13.514,13.514,0,0,1-12.891-17.527l.27-.871a13.5,13.5,0,1,1,25.8,7.946l-.3.97A13.507,13.507,0,0,1,211.511,211.558Zm10.947-62.495c-.166,0-.332,0-.5-.009a13.5,13.5,0,0,1-13-13.982l.033-.926a13.5,13.5,0,0,1,13.485-13.05c.151,0,.3,0,.458.008a13.5,13.5,0,0,1,13.042,13.942l-.035,1.007A13.5,13.5,0,0,1,222.458,149.063Zm-7.02-63A13.507,13.507,0,0,1,202.4,76.045l-.238-.882a13.5,13.5,0,0,1,26.059-7.07l.263.979a13.51,13.51,0,0,1-13.05,16.99Zm-25.1-58.236A13.492,13.492,0,0,1,178.8,21.354l-.464-.756A13.5,13.5,0,0,1,201.308,6.406l.546.889a13.5,13.5,0,0,1-11.513,20.531Z" fill="#22183B"/></g></g></g><!--ITEM 4--><g><defs><clipPath id="clip-path-id-crop-item-4"><rect transform="scale(0.6385858041329739 0.6376238964096528)" x="0.0" y="0.0" width="1113.0" height="1699.0"/></clipPath><clipPath id="clip-path-id-viewbox-item-4"><rect x="0.0" y="0.0" width="710.746" height="1083.323"/></clipPath></defs><g clip-path="url(#clip-path-id-crop-item-4)" transform="translate(1343.0 179.0) rotate(0.0 -556.5 849.5) scale(-1.5659602727275286 1.5683226516929853)"><g clip-path="url(#clip-path-id-viewbox-item-4)" transform="translate(-0.0 -0.0)"><path fill="#F5EAF9" d="M0,182c0,0,6.784-2.303,18.825-6.392c1.338-0.454,2.741-0.931,4.206-1.428C47,169,69,158,92,150  c2.136-0.682,4.295-1.325,6.597-1.867C117,147,133,140,149.939,134.107c1.778-0.424,3.573-0.876,5.36-1.359  c8.934-2.412,17.666-5.577,25.63-10.405c1.922-0.82,3.831-1.66,5.734-2.539c3.806-1.757,7.588-3.679,11.338-5.804  c9-5.4,19.44-6.84,29.592-8.64c1.692-0.3,3.376-0.61,5.044-0.942C251,103,265,89,282.551,85.515  c1.724-0.551,3.499-1.108,5.273-1.667C303.792,78.88,319.7,73.75,335,67c12-5,25-4,37-9c43-21,89-30,135-44c6-2,10-6,14.748-8.904  c1.753-0.819,3.8-1.547,5.659-2.178C532.985,1.024,536,0,536,0s4.953,10.354,13.187,31.031c0.633,1.591,1.286,3.242,1.944,4.973  C556,63,571,85,581,110c13,29,8,63,20,93c6,16,13,31,16.823,47.971c0.55,2.196,1.113,4.468,1.677,6.756  c4.224,17.137,8.458,35.127,12.663,53.968c0.386,1.733,0.773,3.474,1.162,5.241C639,351,647,383,655,417c11,42,10,83,18,126  c3,12,8,22,9,33c2,14-2,28,1.503,41.703c0.142,1.204,0.284,2.41,0.426,3.617c0.707,6.038,1.404,12.119,2.089,18.245  c0.228,2.042,0.455,4.088,0.681,6.14C689,695,695,742,702,791c1,6,0,13,0,19c-1,4,2,8,2,12c2,10-2,19-0.518,28.514  c0.13,2.353,0.257,4.711,0.383,7.073c0.556,10.423,1.076,20.941,1.558,31.553c0.096,2.122,0.192,4.249,0.285,6.379  C706,918,713,940,710,962c-1,16-1,30-0.883,45.5c0.039,2.186,0.076,4.445,0.112,6.711c0.356,22.66,0.539,45.697,0.539,69.112  H145.711c0,0,0.745-23.074,0.507-62.827c-0.013-2.208-0.029-4.468-0.044-6.779C145,994,148,975,144,955c-2-17-1-35-1-52  c0-54-13-108-12.31-162.484c-0.183-2.291-0.387-4.532-0.592-6.775C126.899,700.232,123.615,666.615,119,632c-2-11,2-22,1-33  c-1-7-1-14-4-21c-11-28-19-56-20.431-86.092c-0.317-1.581-0.636-3.162-0.958-4.743c-3.742-18.423-7.751-36.851-12.047-55.215  c-0.537-2.296-1.078-4.59-1.575-6.785C77,394,70,364,51,336c-6-9-8-19-9-28c-2-22-7-44-15.844-63.562  c-0.816-2.134-1.637-4.262-2.464-6.386C16.251,218.936,8.363,200.219,0,182z"/>
<g>
	<path fill="#E27BF5" d="M368.16,62.083c-0.547-1.088,0.612-1.334,1.284-1.801c-0.811-0.826-1.6-1.298-2.377-1.37   c-0.6,0.209-1.199,0.418-1.8,0.623c-0.034,0.028-0.068,0.045-0.102,0.075c0.147,0.387,0.442,0.759,1.052,1.088   c-1.14,1.75-2.126,0.757-2.982-0.483c-0.923,0.303-1.848,0.599-2.774,0.888c0.741,3.258,2.978,6.047,6.581,3.576   c0.511,0.477,0.956,0.631,1.374,0.643c0.546-1.025,1.417-0.487,1.929-1.681C369.499,62.681,368.362,62.941,368.16,62.083z"/>
	<path fill="#E27BF5" d="M362.563,76.097c-0.719,0.704-0.493,1.289-0.638,1.92c-1.173-0.187-1.497-1.161-1.059-2.107   C361.373,75.67,361.877,75.446,362.563,76.097z"/>
	<path fill="#E27BF5" d="M367.239,74.672c-0.141,0.973,0.541,1.839-0.233,2.894c-0.707,0.242-1.393,0.595-2.341-0.312   C364.726,76.037,366.29,74.798,367.239,74.672z"/>
	<path fill="#E27BF5" d="M410.624,88.276c-0.204,0.506,0.117,0.942-0.318,1.474c-1.242-0.161-2.41,0.127-2.739,1.786   c-3.194,0.286-3.067-2.832-2.035-4.848C407.216,87.15,408.747,86.876,410.624,88.276z"/>
	<path fill="#E27BF5" d="M372.667,58.839c1.292,0.927,1.585,1.979,1.061,3.135c-0.622-0.332-1.165-0.291-1.861-0.985   C372.007,60.29,372.229,59.581,372.667,58.839z"/>
	<path fill="#E27BF5" d="M405.725,94.635c1.208,0.728,1.516,1.577,0.735,2.562C404.75,97.307,404.427,94.916,405.725,94.635z"/>
	<path fill="#E27BF5" d="M410.39,91.172c1.557,1.022,2.641,2.11,1.548,3.48c-1.526,0.99-2.666-1.114-3.399-2.423   C409.074,91.475,409.878,92.021,410.39,91.172z"/>
	<path fill="#E27BF5" d="M411.1,107.638c-0.453,0.241-2.268-1.053-2.184-1.557C409.46,106.399,411.717,106.537,411.1,107.638z"/>
	<path fill="#E27BF5" d="M395.606,64.663c0.55-1.196,2.054-0.693,1.937,0.364C396.861,64.73,396.406,65.532,395.606,64.663z"/>
	<path fill="#E27BF5" d="M398.148,75.99c-0.546,1.701-2.708,2.373-3.709,0.071C395.385,74.629,396.678,74.887,398.148,75.99z"/>
	<path fill="#E27BF5" d="M401.605,93.736c0.494,0.279,0.355,0.637,0.811,0.919c-0.479,0.693-0.915,1.583-1.691,0.832   C400.583,94.906,400.739,93.848,401.605,93.736z"/>
	<path fill="#E27BF5" d="M399.568,66.811c0.117,1.757,3.019,3.154,1.472,5.123c-0.81-0.577-1.618-1.154-2.426-1.73   C399.737,68.97,398.984,67.976,399.568,66.811z"/>
	<path fill="#E27BF5" d="M403.173,81.27c-0.652,1.651,0.27,3.098-0.871,4.814c-2.014-0.867-1.844-3.691-1.552-5.525   C401.535,80.686,402.229,80.373,403.173,81.27z"/>
	<path fill="#E27BF5" d="M393.112,87.682c-0.822,0.702-2.082-0.939-1.784-1.61C391.971,86.061,394.005,86.556,393.112,87.682z"/>
	<path fill="#E27BF5" d="M380.363,67.045c-0.859-0.17-1.72-0.315-2.583-0.483c0.454-0.808,0.007-1.5,0.96-2.372   C379.952,64.501,380.612,65.944,380.363,67.045z"/>
	<path fill="#E27BF5" d="M377.828,57.764c0.867-1.828,2.155-1.592,3.298-2.061c-0.765,0.79-1.132,2.179-1.356,3.446   C379.18,59.227,377.946,58.347,377.828,57.764z"/>
	<path fill="#E27BF5" d="M376.144,60.64c0.773,0.736,1.165-0.369,1.935,0.365c-0.361,0.577-0.735,1.109-1.202,1.177   C376.363,61.701,375.994,61.205,376.144,60.64z"/>
	<path fill="#E27BF5" d="M375.748,62.736c-0.014,0.683,0.6,1.285,0.411,1.991c-0.672,0.434-1.407,0.541-2.012,1.286   c-0.283,0.987,0.538,1.837-0.233,2.891c-2.885-1.4-1.89-3.302-2.682-4.968C372.745,63.572,374.098,62.447,375.748,62.736z"/>
	<path fill="#E27BF5" d="M392.28,59.576c0.824,0.283,3.16,0.749,2.912,2.076c-1.07,0.166-2.225-0.08-3.391-0.378   C392.335,60.658,391.748,60.189,392.28,59.576z"/>
	<path fill="#E27BF5" d="M393.277,67.419c1.104,0.609,1.075,1.362,1.863,2.008c-0.932,2.507-2.709,0.917-3.947,1.941   c-0.606,1.171,0.116,2.166-0.554,3.345c-3.844-0.695,0.721-4.158-3.004-5.539C388.996,66.622,392.621,70.091,393.277,67.419z"/>
	<path fill="#E27BF5" d="M390.598,63.475c-0.319,0.448-0.641,0.9-0.962,1.349c-1.857-0.441-5.053-2.271-3.971-4.191   C387.823,60.457,388.676,61.757,390.598,63.475z"/>
	<path fill="#E27BF5" d="M382.824,55.891c0.224,0.086,0.416,0.012,0.564-0.276c0.62,0.397,1.193,0.8,1.297,1.262   c-0.59,0.482-1.201,0.875-1.853,1.061C383.116,57.216,382.215,56.653,382.824,55.891z"/>
	<path fill="#E27BF5" d="M382.032,60.083c1.169,0.939,1.508,1.986,1.061,3.133c-1.366-0.931-2.396-0.238-3.715-0.949   C379.405,60.883,381.298,61.252,382.032,60.083z"/>
	<path fill="#E27BF5" d="M393.069,98.525c-0.406-0.289-0.81-0.577-1.215-0.866C392.204,96.281,393.986,97.94,393.069,98.525z"/>
	<path fill="#E27BF5" d="M389.137,50.324c-0.69,0.285-1.381,0.569-2.072,0.853c0.472,0.505,0.863,1.053,1.072,1.369   c0.727,0.846,0.926-0.863,1.614-0.208c1.415,0.248,0.32,1.84,1.136,1.49c3.207-0.183,2.821-2.821,1.875-4.978   C391.553,49.34,390.343,49.826,389.137,50.324z"/>
	<path fill="#E27BF5" d="M436.313,32.406c-1.81,0.657-3.62,1.315-5.43,1.973c-0.4,0.542-0.482,1.14-1.171,0.93   c0.143-0.204,0.206-0.396,0.221-0.583c-3.26,1.187-6.516,2.38-9.769,3.582c-0.301,1.047-1.51,1.28-2.282,0.844   c-3.496,1.297-6.986,2.608-10.468,3.938c0.288,0.716-0.331,1.55-0.663,2.348c-0.788,0.188-2.341-0.169-2.98-0.943   c-3.059,1.184-6.114,2.381-9.159,3.604c0.09,0.511,0.098,1.032,0.373,1.519c2.589,0.238,2.601,2.286,3.081,3.894   c0.788,0.801,1.317,0.358,2.104,1.158c1.134,2.314-2.089,2.86-3.462,2.289c-0.392,1.415-1.318,2.896-0.794,4.19   c2.645,0.545,4.267,2.046,6.955,3.6c0.798-0.785,0.004-1.365,0.799-2.147c-0.841-0.709-2.284-1.34-2.51-2.131   c-0.013-4.236,4.67-0.21,5.881-2.598c1.026-2.024-2.552-2.581-1.632-4.902c2.037,0.485,6.451,2.221,5.906,4.552   c-0.523,0.467-1.163,0.38-1.77,0.433c-1.324,2.055,1.507,2.39,1.467,4.102c-0.482,1.013-1.383-0.013-2.182-0.535   c-0.77,1.626-2.066,0.688-2.979,1.614c-2.078,2.722,2.204,4.619,2.285,7.064c-0.858,1.195-2.084,0.601-3.31,0.019   c-0.776,2.092,1.768,2.446,3.32,3.045c0.909,0.837,0.763,1.81-0.23,2.892c-0.397,0.416-0.97-0.013-1.453-0.015   c-1.604-1.277-0.835-2.816-3.001-3.496c-2.844,1.999-0.825,4.965,1.237,6.995c0.952-0.556,1.095-2.059,2.742-0.766   c0.882-2.828,3.671-0.947,4.279,0.672c1.052,0.744,1.693-0.482,2.744,0.261c1.424,0.632,0.336,1.59,1.302,2.283   c1.808,0.614,2.063-1.12,3.297-2.061c1.864,1.255,0.587,2.921,1.31,4.328c-1.558,0.809-3.072,1.837-4.589,2.842   c1.308,1.915,2.293,0.896,3.961,2.144c1.196-1.312-0.887-2.201-0.094-3.46c1.231-1.362,2.466,0.208,3.8,1.347   c2.142,0.018,3.529-3.628,5.633-3.794c-1.488-2.466,0.114-5.331-1.399-7.793c-1.324-1.387-1.975,0.471-3.231-0.604   c-2.313-1.996-0.46-5.464,0.78-7.257c1.857,0.03,1.255,2.275,2.348,2.354c0.315-0.812,0.835-0.644,1.206-1.178   c-1.054-0.681-2.087-1.364-1.702-2.233c0.362-0.587,0.875-0.422,1.287-0.78c4.586,3.378,2.347,9.362,4.084,13.784   c1.797-1.327,3.24-4.371,4.901-6.359c0.703-1.049-1.097-0.164-1.699-1.211c0.208-1.404,1.921-1.416,2.247-3.152   c0.831-0.697,1.094,0.528,1.861,0.985c0.995-2.391,2.389-2.959,4.173-5.854c-2.74-0.53-0.993-3.048,0.465-4.765   c1.054,0.545,1.026,1.231,1.216,1.889c9.132-11.608,17.905-24.944,26.898-37.215c-1.096-0.781-2.191-1.562-3.287-2.343   C458.116,24.77,447.183,28.46,436.313,32.406z M401.69,50.998c-0.79-0.047-2.832-1.298-2.108-2.181   c0.107-0.15,0.214-0.301,0.321-0.451C401.264,48.57,402.952,49.523,401.69,50.998z M423.507,37.34   c1.321,0.53,0.528,1.726-0.399,1.073C423.248,38.054,423.067,37.736,423.507,37.34z M426.616,48.386   c0.042,2.305-2.582,3.458-3.937,5.008C419.528,51.271,424.849,47.881,426.616,48.386z M418.696,46.139   c0.839,0.438,0.21,1.062,0.733,1.539c-0.562,1.291-1.453,0.992-2.172,1.508c-0.644-0.459-1.447-0.902-1.54-1.435   C416.654,46.937,417.715,46.729,418.696,46.139z M415.749,55.928c0.894-1.439,2.574-1.841,3.469-0.246   C418.312,56.979,417.082,56.701,415.749,55.928z M417.396,64.913c-1.258-0.86-0.886-1.929-0.013-3.063   c0.225,0.081,0.484,0.334,0.647,0.12C419.089,62.853,418.392,64.354,417.396,64.913z M414.29,54.888   c0.406,0.29,0.81,0.577,1.215,0.866c0.078,0.674-0.942,2.104-1.605,2.251c-1.251-0.792-1.445-1.723-0.575-2.789   C413.708,55.401,413.955,54.92,414.29,54.888z M412.941,60.377c-1.091,0.075-2.049-2.122-0.494-2.389   C413.115,58.719,413.721,59.46,412.941,60.377z M411.282,48.325c-0.018-0.407,0.109-0.833,0.56-1.299   c0.324,0.231,0.647,0.461,0.971,0.692C412.4,48.397,411.965,48.969,411.282,48.325z M416.476,77.502   c-1.001-0.159-1.907,0.143-3.073-0.829c-0.606-0.466,0.281-1.126-0.326-1.594c-1.065-0.138-2.033,0.195-3.232-0.604   c1.454-1.268,4.025-3.756-0.02-5.107c0.846-2.041,0.691-4.964,1.189-6.289c0.921-0.212,2.103,0.839,3.233,1.625   c0.374,1.085-0.96,1.122-0.798,2.151c1.722,0.494,5.59,2.323,5.989,4.948C417.681,72.756,416.415,75.611,416.476,77.502z    M420.861,63.645c1.53,1.234,2.137,2.591,2.275,4C420.643,70.021,416.721,64.36,420.861,63.645z M423.973,75.714   c0.151,2.777,2.839,5.22,1.484,8.19c-4.337-0.209-0.219-4.444-2.525-6.216c-1.172-0.988-1.872,0.304-3.071-0.827   C420.093,74.681,422.348,74.419,423.973,75.714z M420.611,61.43c1.589-2.754-0.464-4.573,2.071-7.015   c5.729,1.056-0.355,7.395,4.393,9.245C424.99,67.045,423.601,62.129,420.611,61.43z M430.228,43.831   c0.419,0.011,0.862,0.167,1.376,0.64c-1.19,1.449,0.712,2.495,0.173,3.861C428.838,49.593,429.502,45.509,430.228,43.831z    M430.301,63.242c-1.13,0.135-2.896-0.559-2.266-1.954c1.228-0.289,1.943-0.439,2.492-1.958c0.534,0.233,0.959-0.05,1.538,0.413   C432.478,60.78,431.032,62.059,430.301,63.242z M431.479,54.912c-0.837-1.119-2.633-2.113-1.951-3.427   c1.234-0.058,2.429-0.276,3.877,0.725C433.464,53.423,432.59,54.387,431.479,54.912z M433.94,43.757   c-0.942,0.062-1.917-1.113-1.219-1.885c0.602,0.23,1.093-0.065,1.779,0.586C434.515,42.864,434.391,43.291,433.94,43.757z    M436.565,33.399c0.406,0.29,0.808,0.577,1.215,0.866c-0.48,0.692-0.914,1.583-1.692,0.834   C435.484,34.632,436.142,34,436.565,33.399z M439.679,67.549c-1.768,0.59-2.322-2.105-0.414-1.99   C439.898,66.158,440.035,66.818,439.679,67.549z M435.759,55.585c1.727-1.03,3.436-2.605,3.371-4.729   c0.839,0.71,2.286,1.34,2.511,2.128c-0.104,1.171-1.058,1.53-1.765,2.477c0.174,0.931,2.415,1.595,2.59,2.527   C440.2,60.784,438.013,57.668,435.759,55.585z M442.061,57.018c-0.017-0.406,0.109-0.833,0.559-1.298   c0.71,0.784,1.324,0.313,1.458,1.04C443.561,57.601,442.886,57.688,442.061,57.018z M444.304,52.846   c-3.069,1.786-3.14-4.595-0.011-3.066C444.861,50.729,444.207,51.834,444.304,52.846z M446.248,55.251   c-0.242-0.172-0.484-0.345-0.726-0.518c0.216-0.303,0.429-0.601,0.644-0.902C446.85,54.219,446.739,54.709,446.248,55.251z    M447.76,49.537c-0.324-0.231-0.647-0.461-0.972-0.693C447.153,47.52,448.602,48.955,447.76,49.537z"/>
	<path fill="#E27BF5" d="M415.973,73.069c-0.349,0.645-0.862,0.501-1.452-0.014C414.871,72.408,415.383,72.555,415.973,73.069z"/>
	<path fill="#E27BF5" d="M566.267,202.294c0.216,1.487,2.016,0.854,1.864,2.007c-0.76-0.348-1.412-0.163-2.179-0.537   C566.155,203.261,565.548,202.861,566.267,202.294z"/>
	<path fill="#E27BF5" d="M562.045,216.945c-0.344-0.432-0.926-0.833-0.895-1.315c0.531,0.231,0.959-0.05,1.538,0.413   C562.474,216.344,562.258,216.647,562.045,216.945z"/>
	<path fill="#E27BF5" d="M569.304,194.949c-1.789,1.662,0.006,2.861-0.949,4.416c-1.83-1.195-3.331-4.204-2.767-6.388   C566.751,193.262,568.096,194.438,569.304,194.949z"/>
	<path fill="#E27BF5" d="M586.469,230.958c-0.141,0.973,0.541,1.839-0.233,2.894c-0.707,0.242-1.393,0.595-2.341-0.312   C583.956,232.323,585.52,231.084,586.469,230.958z"/>
	<path fill="#E27BF5" d="M581.792,232.383c-0.719,0.703-0.493,1.289-0.638,1.92c-1.173-0.187-1.497-1.161-1.059-2.107   C580.602,231.956,581.107,231.732,581.792,232.383z"/>
	<path fill="#E27BF5" d="M576.624,209.336c-1.257-0.793-2.203-1.622-2.996-2.477C574.531,205.153,578.485,207.851,576.624,209.336z"/>
	<path fill="#E27BF5" d="M584.34,201.59c0.592-0.99,1.601-0.497,2.659-1.162c0.692,1.341,2.849,2.493,2.677,3.947   C587.472,205.892,582.683,204.371,584.34,201.59z"/>
	<path fill="#E27BF5" d="M577.213,216.211c-1.08-1.365-2.409-0.374-2.83-1.682C575.082,213.976,577.915,214.424,577.213,216.211z"/>
	<path fill="#E27BF5" d="M581.001,214.493c1.144,0.93,2.59,5.336,4.445,2.49c-0.611-0.329-0.906-0.702-1.052-1.088   c1.396-1.216,2.802-0.833,4.28,0.673c-0.672,0.467-1.831,0.713-1.284,1.801c0.202,0.858,1.339,0.599,2.184,1.557   c-0.512,1.194-1.383,0.657-1.929,1.681c-0.418-0.012-0.863-0.166-1.374-0.643c-4.066,2.787-6.396-1.12-6.795-4.845   C579.92,215.273,580.469,214.926,581.001,214.493z"/>
	<path fill="#E27BF5" d="M549.062,176.1c0.243,0.173,0.486,0.346,0.73,0.52c-0.305,0.871-0.877,0.436-1.371,0.379   C548.634,176.699,548.849,176.399,549.062,176.1z"/>
	<path fill="#E27BF5" d="M543.111,203.447c1.118-0.263,2.475,0.627,3.88,1.748c-0.485,0.471,0.096,0.804-0.56,1.297   c-1.1-0.656-2.044-0.543-3.153-1.224C543.49,204.626,542.903,204.09,543.111,203.447z"/>
	<path fill="#E27BF5" d="M547.845,196.295c-1.978,1.776-3.838,4.143-6.361,3.277c0.071-1.169,1.611-2.527,2.326-3.777   C545.346,196.88,546.583,196.526,547.845,196.295z"/>
	<path fill="#E27BF5" d="M547.831,192.206c-3.212-0.295-5.433-4.953-2.115-5.246C544.647,188.94,548.72,190.251,547.831,192.206z"/>
	<path fill="#E27BF5" d="M539.457,175.707c3.035,2.279,6.694,3.475,6.644,7.113c-1.548-0.485-3.048-0.726-4.602-1.244   c0.281-0.854,0.866-1.748-0.091-2.443c-1.423,0.128-2.755,0.696-4.443-0.448C537.596,177.491,538.167,175.89,539.457,175.707z"/>
	<path fill="#E27BF5" d="M543.646,194.995c-2.747,2.132-4.712-1.078-3.646-3.615C542.238,191.133,541.623,193.945,543.646,194.995z"/>
	<path fill="#E27BF5" d="M556.552,215.41c0.554,0.672,0.856,0.129,1.374,0.638c-0.338,1.342-2.098,3.642-3.703,2.115   C554.283,217.208,555.944,216.883,556.552,215.41z"/>
	<path fill="#E27BF5" d="M530.212,185.081c1.026,1.167,0.611,3.598-0.145,4.315C528.917,188.219,526.896,184.301,530.212,185.081z"/>
	<path fill="#E27BF5" d="M554.797,198.872c0.595-0.897,0.096-1.65-0.091-2.443C556.452,197.184,556.272,199.458,554.797,198.872z"/>
	<path fill="#E27BF5" d="M553.271,179.442c-0.384,1.055-1.467,0.924-1.613,0.207C552.098,179.095,552.635,179.024,553.271,179.442z"/>
	<path fill="#E27BF5" d="M591.896,215.125c1.292,0.927,1.585,1.979,1.061,3.135c-0.622-0.332-1.165-0.291-1.861-0.985   C591.237,216.576,591.459,215.867,591.896,215.125z"/>
	<path fill="#E27BF5" d="M594.978,219.022c-0.014,0.683,0.6,1.285,0.411,1.991c-0.672,0.434-1.407,0.54-2.012,1.286   c-0.283,0.987,0.538,1.837-0.233,2.891c-2.885-1.4-1.89-3.301-2.682-4.968C591.975,219.858,593.328,218.733,594.978,219.022z"/>
	<path fill="#E27BF5" d="M523.278,186.592c-0.476,1.222-0.522,2.384-1.117,3.622c-0.68-0.526-1.675-1.012-1.78-1.61   C520.481,187.295,522.064,185.727,523.278,186.592z"/>
	<path fill="#E27BF5" d="M597.058,214.05c0.867-1.828,2.155-1.592,3.298-2.062c-0.765,0.79-1.132,2.179-1.356,3.446   C598.41,215.512,597.176,214.633,597.058,214.05z"/>
	<path fill="#E27BF5" d="M602.054,212.177c0.224,0.086,0.416,0.012,0.564-0.277c0.62,0.397,1.193,0.801,1.297,1.263   c-0.59,0.482-1.201,0.875-1.853,1.061C602.346,213.502,601.445,212.939,602.054,212.177z"/>
	<path fill="#E27BF5" d="M601.262,216.369c1.169,0.939,1.508,1.986,1.061,3.133c-1.366-0.93-2.396-0.238-3.715-0.948   C598.635,217.169,600.528,217.538,601.262,216.369z"/>
	<path fill="#E27BF5" d="M595.374,216.926c0.773,0.735,1.165-0.369,1.935,0.364c-0.361,0.577-0.735,1.11-1.202,1.178   C595.593,217.987,595.224,217.49,595.374,216.926z"/>
	<path fill="#E27BF5" d="M607.774,217.887c-0.829-0.673-1.638-1.07-2.879-0.968c-1.004,1.781,1.672,3.483,3.548,4.072   C608.22,219.956,607.994,218.922,607.774,217.887z"/>
	<path fill="#E27BF5" d="M610.163,228.792c-0.322-1.43-0.644-2.859-0.959-4.287c-0.917-0.119-1.804-0.05-2.339,0.954   c3.725,1.382-0.84,4.845,3.004,5.54C610.312,230.218,610.15,229.517,610.163,228.792z"/>
	<path fill="#E27BF5" d="M599.593,223.331c-0.859-0.17-1.72-0.315-2.583-0.483c0.454-0.808,0.008-1.501,0.96-2.372   C599.182,220.786,599.841,222.23,599.593,223.331z"/>
	<path fill="#E27BF5" d="M447.03,124.081c0.24,2.353,4.957,4.131,3.657,6.685c-1.436,0.66-3.308-0.1-2.671-1.904   c-1.102-0.911-2.872-1.128-3.398-2.422C445.38,125.454,446.183,124.652,447.03,124.081z"/>
	<path fill="#E27BF5" d="M445.229,117.365c1.543-0.438,3.844-0.034,4.766,2.041c-2.307,2.954-4.808,0.989-4.926-1.817   C443.428,117.118,443.74,116.226,445.229,117.365z"/>
	<path fill="#E27BF5" d="M443.427,110.645c-1.66-0.943-1.358-2.141-0.899-3.359C444.614,107.444,443.631,109.536,443.427,110.645z"/>
	<path fill="#E27BF5" d="M432.83,103.429c1.163-0.043,2.599,1.225,3.717,0.949c2.133-1.804,2.914-2.315,4.419-4.66   c1.312,0.786-0.585,1.985-1.038,3c-0.147,1.446,0.961,2.734,1.468,4.103c-1.871,3.8-5.21-1.704-7.749-0.431   c-0.89,0.446-3.059,3.402-1.84,4.123c-0.666-0.208-1.285-0.202-2.022-0.759C430.11,107.297,430.023,105.297,432.83,103.429z"/>
	<path fill="#E27BF5" d="M441.486,87.181c1.324,0.411,0.512,2.927-0.556,2.322C441.464,88.684,440.952,88,441.486,87.181z"/>
	<path fill="#E27BF5" d="M463.559,119.9c1.129,2.444,2.679,4.831,5.188,7.096c-0.151,2.472-2.676,5.254,1.481,7.169   c-0.268,0.376-0.535,0.75-0.803,1.126c-2.19-2.142-4.607-0.582-7.269-2.126c1.194-1.095,3.26-2.648,3.613-4.557   c-0.567-0.404-1.132-0.807-1.699-1.211c1.995-1.555-1.292-3.506-1.468-4.103c-0.498,1.634-0.006,3.136-1.274,4.868   c-0.358-1.558-1.849-3.234-3.722-2.995c-0.527-0.953-0.459-1.984,0.393-3.118C459.954,121.837,461.884,121.501,463.559,119.9z"/>
	<path fill="#E27BF5" d="M451.223,123.336c0.502-0.242,1.039-0.31,1.613-0.21c0.025,0.422-0.836,2.62-1.689,1.856   C451.453,124.396,450.605,123.962,451.223,123.336z"/>
	<path fill="#E27BF5" d="M523.421,181.259c0.59,1.718-1.533,2.541-2.729,3.828C516.543,183.729,520.84,179.477,523.421,181.259z"/>
	<path fill="#E27BF5" d="M463.927,154.813c-1.124,0.345-2.347-1.184-2.105-2.182C462.996,151.974,464.71,153.57,463.927,154.813z"/>
	<path fill="#E27BF5" d="M454.722,131.265c1.212,1.28,3.099,3.548,1.147,4.554c0.339-1.977-2.63-2.139-3.72-1.971   C452.693,132.235,453.504,131.796,454.722,131.265z"/>
	<path fill="#E27BF5" d="M427.179,103.14c0.797,0.577,1.783,1.13,1.219,1.885C427.425,106.293,425.629,104.039,427.179,103.14z"/>
	<path fill="#E27BF5" d="M597.334,191.063C591,162,596,131,581,105c-12-22-23-44-27.442-68.639   c-0.671-2.248-1.375-4.382-2.077-6.516c-0.735-2.09-1.469-4.181-2.202-6.272c-0.1-0.286-0.18-0.572-0.271-0.858   c-1.071-1.752-2.166-3.494-3.267-5.237c-3.409-5.398-6.195-10.789-8.772-16.419c-1.319-0.063-2.641-0.127-3.982-0.192   c-15.301,6.974-30.924,13.436-47.415,16.854c-15.4,3.193-30.326,7.933-45.115,13.201c5.066,12.496,9.651,24.649,5.451,30.542   c0.905-0.638,2.462-0.013,3.154,1.227c-1.315,1.603,0.536,2.792-0.955,4.416c-0.285-0.054-0.574-0.112-0.806,0.105   c-1.818-0.913-1.768-2.964-3.158-3.271c-1.499,2.103-2.997,4.203-4.496,6.306c0.081,0.058,0.162,0.115,0.243,0.173   c0.056,0.778-1.055,2.305-1.849,2.08c-1.98,2.777-3.959,5.553-5.94,8.333c0.053,0.81-0.423,1.689-1.12,2.596   c1.648,1.65,2.919,1.435,4.201,1.298c-0.079,1.09,0.842,1.733,2.107,2.182c1.092-1.396,2.502-1.25,3.786-1.719   c0.036-1.162-0.709-2.223,0.309-3.515c3.961,0.234,1.881,4.615,3.818,6.457c0.683-1.587-0.378-2.948,0.708-4.588   c0.805-0.107,1.661,0.022,2.666,0.88c0.474-0.713,1.066-0.864,1.61-1.23c1.28,0.856,2.638,2.093,3.801,2.373   c0.926,1.038,0.314,2.274,0.901,3.357c2.391,2.55,3.799,0.353,5.733,0.688c1.143,0.738-0.114,1.787-0.072,2.668   c0.883,0.432,1.021,0.958,1.538,1.438c-0.607,1.071-1.418,1.135-2.338,0.709c0.094,1.283,0.534,2.523,0.176,3.862   c-2.686,1.386-4.922,3.901-7.179,0.315c-0.897-1.424-0.177-3.445,0.544-5.387c2.4,0.308,2.372,2.688,3.081,3.896   c3.896-1.611,0.636-7.795-2.76-4.348c-0.751-0.992-0.337-2.136-0.255-3.238c-0.864-0.499-1.541-0.114-2.507-1.107   c-1.36,2.585-3.591,3.005-6.205,2.03c-0.372,1.343,0.419,2.534,0.173,3.863c1.268,0.794,2.225,0.066,3.393,0.379   c1.819,3.389-4.455,6.034-3.838,9.493c2.609,1.759,5.032,0.698,5.56-2.149c1.422,0.299,2.24,2.24,2.756,3.319   c1.125,0.44,2.151,0.406,3.23,0.606c0.845,0.638,0.445,1.44-0.155,2.268c1.993,3.308,6.694,3.112,7.613,6.785   c-1.008,1.166-3.285-0.847-4.122-1.922c-0.788,1.205-1.838,1.131-2.822,1.39c-1.312-1.208-2.938-3.461-4.447-2.492   c1.489,0.966,2.009,2.055,1.709,3.255c-0.953,1.071-2.467-0.581-3.47,0.245c-0.446,0.808,0.029,1.494,0.25,2.214   c2.662,0.19,5.546,1.454,8.155,1.4c1.123-1.262,2.425-1.637,3.704-2.116c1.554,0.828,3.04,1.338,4.363,1.07   c0.564-1.453,1.43-4.51,3.935-5.006c2.731,0.691,6.401,5.461,9.299,4.93c0.124-1.854-0.348-3.634,0.304-5.558   c-0.681-0.527-1.677-1.01-1.783-1.609c0.168-0.48,1.047-1.713,1.445-2.027c2.105-0.374,2.76,2.31,3.886,3.791   c-0.957,1.326-0.98,2.39-2.33,2.753c1.024,0.61,1.926,0.634,2.909,1.054c0.422-3.042,3.846-2.472,5.962-3.225   c0.035-1.578,1.47-2.878,2.975-2.634c0.724,3.673-5.052,6.453-2.624,10.358c-1.674,1.524-2.004,2.645-1.999,4.349   c-1.28,0.741-1.329-1.207-2.026-1.784c-0.694,1.175-1.277,3.216-1.922,3.726c-1.534-2.482-2.944-5.312-7.047-7.063   c0.138,1.917-0.581,4.111-2.646,5.25c1.14,2.868,4.446,1.592,5.984,2.904c1.927,1.646,0.951,4.925-1.021,7.083   c-0.387,1.347,1.432,2.406,1.383,3.706c-0.72,1.519-1.957,0.547-2.654,2.184c0.484,0.55,0.877,1.115,1.781,1.608   c1.456-0.968,3.116-0.947,4.758-1.023c0.53-1.025,0.236-1.94,0.231-2.892c-0.786-0.13-1.48,0.186-2.425-0.708   c-0.804-1.072,0.997-1.916,1.606-2.253c0.055-1.633-1.176-2.783-2.433-3.775c2.273-2.951,6.351,0.03,5.175,3.011   c0.937,0.927,2.135-0.183,2.505,1.106c-0.233,2.554-1.979,5.3-2.715,7.918c2.113-0.147,5.353,1.797,3.971,4.188   c2.218,1.393,3.782-0.396,6.141,1.658c1.094-1.713,2.854-0.205,4.027-1.542c-0.043-1.427-1.036-2.729-1.065-4.158   c-1.102-0.67-1.539,1.898-2.496,1.961c-0.254-0.239-0.465-0.259-0.645-0.124c-2.417-2.56-5.502-6.088-3.017-8.605   c1.259,0.862,1.236,1.886,2.025,2.806c1.435,0.248,2.683-0.38,3.788-1.718c1.749,0.867,4.962,0.555,5.176,3.011   c2.65-0.696,6.904-0.41,4.695,3.687c0.74,0.24,1.512,0.631,2.344,1.331c0.744-0.739,1.539-1.24,2.499-0.936   c0.961,0.692,0.372,1.589,0.089,2.443c0.771,0.8,1.746,0.404,1.942,1.384c-2.119,1.437-4.491,1.642-6.276,4.695   c1.587,2.923,3.856,0.394,4.836-1.649c1.379,0.582,0.972,2.453,2.351,2.354c0.942,0.571,1.426-1.103,2.252-1.109   c-0.091-1.828,0.236-3.709,1.11-5.664c-2.761-1.6-1.528-7.395,1.349-6.513c1.777,0.547,2.776,3.471,0.503,5.455   c0.349,1.183,1.128,2.307,0.74,3.586c-1.165,1.607-2.564,1.108-2.649,3.205c2.551,2.122,2.211,4.622,4.704,6.75   c1.11-1.06,3.804-1.412,4.279,0.674c-1.082,1.11-2.4,1.082-3.956-0.102c-0.643,1.517-0.988,2.039-2.81,3.431   c1.56,2.801,1.773,4.076,5.666,4.38c1.061-1.095,0.88-2.022,1.038-3c1.806,0.375,1.974-2.263,4.273-0.346   c0.282,1.666-0.707,3.499-1.189,5.266c0.886,0.623,1.35-0.806,2.34,0.31c0.82,1.278-1.164,1.894-2.012,1.28   c0.184,1.885-3.603,4.284-1.673,5.942c2.866,0.538,6.715-5.089,4.491-7.326c0.67-0.774,1.216-2.143,2.01-2.308   c1.505,0.274,2.113,1.724,2.432,2.754c0.644-0.213,0.873-3.181,2.489-2.98c2.212,2.44-0.861,5.562,3.257,7.755   c0.425-2.919,2.409-5.079,5.314-3.345c0.111,2.711,4.043,4.93,4.465,7.602c-0.388,1.053-1.468,0.925-1.283,1.8   c2.743,1.896,2.098,4.227,2.766,6.392c0.966,0.989,1.644,0.604,2.507,1.104c0.543-1.022-0.786-1.808-0.172-2.84   c0.92-0.562,1.625-2.168,2.575-2.581c1.669,1.282,1.169,2.847,1.306,4.328c1.168,0.646,2.171,0.491,3.231,0.605   c0.827-0.994,1.077-1.911,1.278-2.824c2.344-0.416,4.542,1.425,5.5,3.583c1.317-0.317,2.306-2.215,3.788-1.715   c1.18,1.075,2.158,3.947,2.174,5.889c0.017,1.947-0.952,3.026-3.682,0.846c-0.771,0.049-0.087,1.901-1.445,2.026   c-1.524-1.234,0.019-2.866-1.468-4.103c-1.008,1.506-3.19,4.714-1.349,6.513c2.277,0.062,4.52,1.699,6.397,2.858   C581,202,579,198,581,197c4-2-5,7,6,1c2,6,10,7,13,12c-3,0-4-2-5-4c-3,5,3,5,4,8c-3-1-5-2-7-4c1,7,10,13,16,11   c-4-9-8-17-9.715-26.305C597.959,193.51,597.641,192.298,597.334,191.063z M438.465,77.556c-0.97-0.559-1.297-1.197-0.814-1.942   c0.528-0.085,1.363,0.509,1.458,1.039C438.894,76.954,438.679,77.255,438.465,77.556z M445.058,71.383   c-0.912-1.152-2.393-1.697-2.994-2.472c0.191-0.297-0.09-0.534,0.237-0.85c0.972-0.65,2.144-0.31,3.473,0.777   C445.851,69.646,446.08,70.435,445.058,71.383z M476.971,81.566c0.8-0.192,1.604,0.345,2.103,1.159   C478.272,84.65,475.192,83.263,476.971,81.566z M473.137,70.001c0.969,0.556,1.295,1.195,0.813,1.939   c-0.506,0.218-1.113-0.048-1.694-0.189C471.791,71.212,472.422,70.091,473.137,70.001z M468.802,76.081   c1.046,0.752,1.816,1.538,1.137,2.515c-0.636,0.054-2.032-0.941-2.184-1.557C468.049,76.458,468.411,76.198,468.802,76.081z    M459.928,55.151c0.926,0.766,0.205,1.744,1.542,2.458c0.713,0.447,1.064-0.854,1.854-0.036c0.956,1.379-0.477,3.062,0.099,4.484   c-1.474,0.961-1.766-1.061-1.865-2.007c-0.759-0.329-1.274,0.511-2.098-0.136c-0.885-1.386-0.74-2.903-1.711-4.28   C458.339,54.807,459.216,55.377,459.928,55.151z M456.417,66.235c1.323,0.391,2.442-0.207,3.959,1.123   c0.032,0.676-0.004,1.366-0.396,2.096c-1.603-0.76-2.78,0.563-4.112,1.145c-0.242-0.172-0.484-0.345-0.726-0.518   C455.395,68.822,455.955,67.521,456.417,66.235z M451.153,60.783c0.156,0.093,0.312,0.172,0.402-0.054   c0.162,0.116,0.324,0.231,0.486,0.347c-0.085,0.146-0.152,0.293,0.081,0.398c-0.107,0.15-0.214,0.3-0.321,0.451   c-0.158-0.091-0.309-0.17-0.402,0.053c-0.162-0.116-0.324-0.231-0.486-0.347c0.085-0.146,0.155-0.291-0.081-0.397L451.153,60.783z    M449.076,66.776c0.904-0.093,1.573,0.999,0.974,1.714C449.296,68.563,448.511,67.487,449.076,66.776z M449.655,70.587   c1.667-1.854,4.811-0.022,5.98,1.885c-0.924,1.201-2.381-0.168-3.471,0.242c-0.766,0.713-0.272,1.263-1.042,1.976   C448.343,75.217,448.708,71.64,449.655,70.587z M455.261,80.697c1.882,1.255,2.182,2.716,0.903,4.38   c-3.118-0.71-5.424-4.282-4.786-7.148c0.867-0.485,1.898-0.171,3.068,0.831c0.699-1.302,1.761-0.836,2.661-1.165   c1.164,0.923,3.135,3.418,4.447,2.492c-0.239-0.791,0.155-2.993,1.605-2.251c0.333,1.66,1.179,3.252,0.018,5.107   C460.821,83.562,457.779,80.873,455.261,80.697z M470.307,112.485c-2.842,0.451-2.552-2.983-3.891-4.814   c-1.581-2.161-3.884-3.608-5.749-5.798c0.17-1.536,2.047-0.479,3.548-0.867c2.561-0.668,3.938-2.807,5.73,0.69   c-0.938,1.474-1.938,2.639-2.97,3.655c0.099,0.873,1.54,1.571,1.943,2.403c0.363-0.584,0.881-0.422,1.289-0.777   C471.565,108.64,471.635,110.472,470.307,112.485z M473.99,104.237c-1.464,2.083-4.629-0.967-2.431-2.75   C472.739,101.643,474.432,103.22,473.99,104.237z M474.153,82.956c-1.665-0.153-2.21-1.964-0.66-3.187   C475.231,80.635,474.726,81.79,474.153,82.956z M476.215,94.956c1.724,0.914,4.378,1.14,3.16,3.27   C478.181,97.758,474.224,97.59,476.215,94.956z M480.365,104.028c-2.634,0.153-2.299-2.927-1.55-4.503   C481.047,99.423,482.118,102.322,480.365,104.028z M482.992,94.691c-2.247-0.185-2.284-2.747-0.416-3.012   C484.349,92.52,483.89,94.106,482.992,94.691z M486.837,130.382c0.127-1.723,1.371-2.587,1.758-4.521   c0.621,0.336,1.168,0.292,1.861,0.988C490.963,128.384,488.536,130.837,486.837,130.382z M505.177,114.925   c-0.426,1.238-2.376,2.987-3.615,3.534c-0.323-0.844-0.381-1.723,0.07-2.668C502.833,115.591,503.818,114.342,505.177,114.925z    M503.373,129.263c-1.422,0.749-4.844-1.26-2.511-3.152c1.08,0.47,2.526,1.123,3.074,1.85   C503.451,128.437,504.029,128.771,503.373,129.263z M503.28,103.72c-0.881,0.743-3.015-0.354-3.638-1.574   C500.694,99.586,504.693,101.656,503.28,103.72z M498.12,104.798c-1.798,0.942-3.908-2.296-1.465-3.083   C498.092,102.04,499.393,103.511,498.12,104.798z M495.547,107.376c0.862-0.132,1.114,0.726,1.295,1.266   c-0.438,0.551-0.975,0.622-1.61,0.208C495.43,108.351,495.109,107.913,495.547,107.376z M494.766,92.554   c0.84,0.054,1.672,0.075,2.666,0.881c-0.915,1.243-2.082,1.286-3.386,0.643C493.954,93.614,494.34,93.086,494.766,92.554z    M489.039,92.886c0.837-1.438,3.962,0.41,3.073,1.852C490.821,95.379,488.685,94.576,489.039,92.886z M491.498,103.812   c-0.856-0.551-2.273-0.485-2.588-1.504c1.975-1.514,3.396,0.442,5.733,0.691c-1.276,1.118-0.229,1.936-1.038,2.995   C492.332,106.358,491.182,104.818,491.498,103.812z M495.956,130.428c-2.131,1.278-4.238-2.872-1.304-3.308   C496.118,128.088,496.73,129.17,495.956,130.428z M500.979,135.706c-1.224,1.176-3.642,2.37-4.359-0.048   c1.286-1.466,3.084-0.447,4.598-0.798c2.737-1.426,1.444-5.472,3.691-6.205c1.481,0.901,1.35,2.009,0.252,3.242   c0.26,0.849,1.414,1.587,1.542,2.455C505.073,136.158,503.332,137.41,500.979,135.706z M507.037,93.831   c0.598,0.231,1.09-0.067,1.779,0.586c0.016,0.407-0.112,0.832-0.562,1.301C507.312,95.777,506.338,94.605,507.037,93.831z    M507.207,117.729c0.5-0.911,1.135-1.184,1.935-0.661c0.015,0.407-0.113,0.833-0.561,1.298   C508.164,118.355,507.718,118.199,507.207,117.729z M509.369,135.235c-0.64-0.462-1.519-0.894-1.136-1.488   c0.578-0.34,1.789-0.249,2.023,0.758C510.007,134.971,509.626,134.809,509.369,135.235z M509.564,122.125   c0.14-0.359-0.041-0.677,0.398-1.075c0.244,0.174,0.487,0.348,0.73,0.52C510.393,122.13,510.026,122.376,509.564,122.125z    M510.676,139.562c0.152-0.825,0.144-1.315,0.884-1.749c0.974,0.519,1.799,0.313,2.344,1.333   C513.05,140.357,511.973,140.495,510.676,139.562z M517.655,128.233c-5.854-2.284-3.967-6.336-0.678-8.294   c1.686,1.146,0.947,2.604,1.63,3.876c-0.387,1.136-1.136,0.514-1.609,1.231C517.468,126.078,519.245,126.938,517.655,128.233z    M519.857,112.82c-2.398-0.554-2.632-3.033-1.792-4.677C520.173,109.508,520.805,111.061,519.857,112.82z M567.206,150.648   c0.324,0.231,0.649,0.463,0.972,0.693c0.064,1.053-1.228,2.228-2.257,1.111C565.799,151.869,566.616,150.722,567.206,150.648z    M568.588,175.412c0.267,0.594-0.277,2.341-1.366,1.405C567.443,176.234,567.674,174.94,568.588,175.412z M566.062,168.177   c-1.924,1.062-3.593,3.334-5.884,2.602c-0.162-0.115-0.323-0.23-0.485-0.346C560.725,168.268,563.499,166.229,566.062,168.177z    M563.229,166.499c-2.55-0.197-6.18-1.762-4.696-4.71c-0.874-0.888-1.492-0.542-2.346-1.331c0.242-0.847-0.143-1.616,0.715-2.548   c2.182-0.281,2.891,2.252,3.402,3.447C562.457,162.915,563.004,164.685,563.229,166.499z M557.87,135.503   c1.092,0.187,1.643,0.971,1.621,1.833c-0.757,0.684-1.556,1.163-2.663,0.142C556.684,136.883,557.437,136.169,557.87,135.503z    M555.013,148.752c1.231-0.384,2.528-0.459,3.956,0.102c0.01,0.883,0.689,1.683,0.331,2.614c-1.691,1.5-3.407,2.884-5.477,2.548   C554.442,152.232,554.606,150.509,555.013,148.752z M547.636,139.075c0.319,0.86-0.383,1.833-1.368,1.402   C545.944,139.605,546.686,138.822,547.636,139.075z M543.86,144.88c0.325,0.232,0.648,0.462,0.972,0.693   c-0.301,0.87-0.874,0.438-1.369,0.38C543.603,145.592,543.426,145.277,543.86,144.88z M542.376,135.667   c0.404,0.628,0.23,1.333-0.396,2.096C539.895,137.042,540.758,134.602,542.376,135.667z M536.867,130.042   c1.59,0.22,2.768,2.033,2.112,3.204C537.293,134.173,535.851,131.325,536.867,130.042z M537.71,139.131   c-1.622,0.709-4.1-1.14-2.677-2.923c1.108,0.01,1.978-1.124,3.228-0.418C538.309,136.873,538.225,137.976,537.71,139.131z    M535.408,127.98c0.084,1.145-1.372,1.526-2.339,0.711C533.673,127.621,534.493,127.554,535.408,127.98z M521.319,136.96   c-0.081-0.466-0.402-0.901,0.318-1.474c0.589-0.078,1.824,0.803,1.942,1.385C523.008,137.792,522.096,137.046,521.319,136.96z    M526.333,140.196c-1.489,1.671-4.412-0.607-2.592-2.526C524.918,137.944,526.569,139.145,526.333,140.196z M527.555,122.045   c1.112-0.126,3.006,1.155,2.757,2.302C529.159,125.917,524.991,124.303,527.555,122.045z M530.931,139.396   c0.053,0.562-1.037,1.659-1.934,0.66C528.943,139.495,530.031,138.4,530.931,139.396z M535.027,156.245   c-1.671,1.063-3.282-1.197-4.928-1.817c-0.159,0.226-0.388,0.128-0.564,0.28c0.246,1.058,0.954,2.056-0.147,3.288   c-1.457-0.697-1.415-1.588-1.947-2.406c-0.015-1.125,1.214-0.632,1.122-1.575c-0.588-0.524-0.812,0.737-1.45-0.02   c0.339-0.791-0.634-1.416,0.555-2.32c1.821,1.136,3.296,0.59,4.927,0.796c0.802,1.44,1.475,1.703,2.672,2.924   C535.036,155.697,535.029,155.971,535.027,156.245z M541.342,161.764c-0.101-0.515,0.282-1.051,0.803-1.126   c0.437,0.285,0.721,0.588,0.812,0.919C542.519,162.109,541.981,162.178,541.342,161.764z M542.533,156.5   c-0.503,0.237-1.01,0.462-1.694-0.191c-1.663-3.381-4.993-1.649-7.361-4.564c-0.012-0.818,0.379-1.687,0.315-2.499   c-1.07-0.542-0.552-1.29-1.622-1.831c0.113,1.041-1.257,1.342-1.849,2.08c-0.985-0.38-2.113-0.354-2.184-1.557   c1.035-1.345,2.455-0.816,3.627-1.492c0.319-1.684,2.05-2.805,3.214-3.484c0.405,0.289,0.808,0.577,1.215,0.866   c-0.092,1.187-0.954,1.2-1.689,1.853c1.142,2.605,3.98,1.234,6.226,3.08c-1.694,2.81,1.365,5.005,2.369,7.461   c0.879,0.257,1.677,0.111,2.501,0.087c0.69-0.773-0.564-1.291,0.394-2.095c1.435-0.039,1.74,1.438,0.494,2.388   c0.988,0.553,0.823,1.256,1.217,1.888c-1.103,2.358-2.829,1.673-4.514,1.197C543.542,158.55,543.324,157.487,542.533,156.5z    M548.948,166.507c-2.57-2.731-6.81-1.226-5.588-5.004c1.759,0.736,2.523,0.495,3.156,2.25c0.852-0.214,1.756-0.184,2.745,0.259   C549.574,164.904,550.176,165.983,548.948,166.507z M549.02,143.802c0.855-1.227,0.813-3.063,2.57-3.605   c1.906,1.188,1.638,2.654,0.662,4.211C551.25,144.56,550.257,144.757,549.02,143.802z M551.66,158.59   c0.591-0.079,1.825,0.801,1.944,1.386C552.679,161.43,550.075,160.27,551.66,158.59z M552.34,167.905   c0.214-0.3,0.428-0.6,0.642-0.9c1.35,1.218,3.009-0.394,3.797,1.351C555.571,169.068,553.389,169.682,552.34,167.905z    M554.618,172.927c-1.61-0.752-0.82-2.653,0.394-3.117c0.405,0.289,0.808,0.576,1.212,0.864   C555.803,171.612,555.342,172.372,554.618,172.927z M556.647,175.732c0.538-0.739,1.303-0.37,2.097,0.137   c0.036,0.954-0.209,1.297-1.123,1.575C556.902,176.924,556.128,176.413,556.647,175.732z M557.472,180.737   c1.39-1.376,4.422,0.055,4.768,2.041C561.197,185.744,556.557,182.652,557.472,180.737z M566.842,183.001   c-0.255,0.985,1.186,1.753-0.232,2.893c-2.88-1.411-1.433-4.778-5.027-6.303c0.666-1.583,0.315-3.039,1.517-4.695   c3.334,0.018,2.81,3.52,5.666,4.381C568.729,180.672,568.105,181.933,566.842,183.001z M568.794,165.37   c-0.1-0.603-0.662-1.144,0.234-1.87C570.231,163.975,569.822,165.834,568.794,165.37z M571.852,185.214   c-1.178-1.482-2.754-2.915-1.388-4.727c0.307,0.146,0.555,0.019,0.808-0.105C573.265,181.715,573.464,184.063,571.852,185.214z    M580.448,152.615c1.142,0.809,2.618,1.569,1.784,2.632C581.053,155.146,579.939,153.585,580.448,152.615z M581.753,178.004   c1.318,1.061,1.091,2.932-0.067,3.689C579.302,180.792,580.054,178.18,581.753,178.004z M581.13,184.015   c0.589-0.08,1.825,0.801,1.941,1.384C582.178,187.001,579.522,185.595,581.13,184.015z M585.567,162.381   c0.444,0.141,0.851,0.103,1.294,0.241c0.093,0.739,0.852,1.391-0.156,2.269C585.481,164.849,584.295,163.39,585.567,162.381z    M586.401,169.43c-3.245-0.265-2.173-3.96,0.15-3.292C587.693,167.079,587.489,168.198,586.401,169.43z M588.744,191.82   c-1.411-1.246-0.989-2.736-0.259-4.261c1.36,0.271,3.532,1.284,4.366,2.092C591.628,191.079,590.077,190.926,588.744,191.82z    M598.394,182.393c-1.086-0.188-1.532-0.986-1.22-1.884c0.609-0.058,1.127-0.567,1.938,0.36   C599.201,181.334,598.821,181.856,598.394,182.393z"/>
	<path fill="#E27BF5" d="M600.587,223.375c-0.141,0.973,0.541,1.839-0.233,2.894c-0.707,0.242-1.393,0.595-2.341-0.312   C598.074,224.74,599.638,223.501,600.587,223.375z"/>
	<path fill="#E27BF5" d="M595.911,224.799c-0.719,0.703-0.493,1.289-0.638,1.92c-1.173-0.187-1.497-1.161-1.059-2.107   C594.721,224.372,595.225,224.149,595.911,224.799z"/>
	<path fill="#E27BF5" d="M595.12,206.91c1.144,0.93,2.59,5.336,4.445,2.49c-0.611-0.329-0.906-0.702-1.052-1.088   c1.396-1.216,2.802-0.833,4.28,0.673c-0.672,0.467-1.831,0.713-1.284,1.801c0.203,0.858,1.339,0.599,2.184,1.557   c-0.512,1.194-1.383,0.657-1.929,1.681c-0.418-0.012-0.863-0.166-1.374-0.643c-4.066,2.787-6.396-1.12-6.795-4.845   C594.038,207.689,594.587,207.343,595.12,206.91z"/>
	<path fill="#E27BF5" d="M606.515,211.908c-0.639,0.269-1.272,0.571-1.934,0.73c0.791,1.667-0.203,3.568,2.682,4.968   c0.177-0.242,0.263-0.473,0.305-0.697C607.215,215.242,606.863,213.575,606.515,211.908z"/>
	<path fill="#E27BF5" d="M484.059,120.927c-0.887-0.635-0.984-1.371-1.057-2.112C483.655,119.481,484.677,120.097,484.059,120.927z"/>
	<path fill="#E27BF5" d="M486.306,117.775c0.765,0.364,1.498,0.57,2.263,0.935c-0.694,0.727-0.579,1.784-1.441,3.047   c-0.626-0.695-0.99-0.121-1.618-0.812C486.85,119.748,484.967,118.971,486.306,117.775z"/>
	<path fill="#E27BF5" d="M536.87,152.121c0.094-0.827-1.081-1.494-1.301-2.284c0.773,0.398,1.327-0.254,2.182,0.535   C537.186,150.875,537.93,152.231,536.87,152.121z"/>
	<path fill="#E27BF5" d="M429.586,98.738c0.852,0.127,1.749,0.454,2.419-0.312c0.057-1.575,0.659-3.223-0.745-4.607   c0.502-0.903,1.403,0.115,1.854-1.055c0.122-0.835-0.509-1.57,0.312-2.494c2.271-0.384,4.404-1.407,6.939-0.492   c-0.482,0.676-0.965,1.354-1.446,2.028c0.017,0.749,1.138,1.352,0.655,2.163c-1.914,1.097-4.683-1.959-6.457-0.183   c0.031,0.474-0.366,0.998,0.087,1.418c1.335,1.128,2.302,0.456,3.554,1.177c-0.223,1.322-0.413,2.641,0.177,3.861   c-1.056,0.562-2.293,0.255-3.551-0.153c-2.682,1.837-8.883,0.676-5.823-3.132C428.727,96.865,428.294,98.22,429.586,98.738z"/>
	<path fill="#E27BF5" d="M429.54,86.48c0.725,0.994-0.627,2.259,0.255,3.238c0.898,1.011,1.479,0.477,2.262,0.931   c-1.763-0.095-3.372,2.13-3.132,3.885c-0.528-1.909-1.166-3.805-2.606-5.592c0.321-0.451,0.644-0.903,0.965-1.354   C428.123,87.63,428.745,86.632,429.54,86.48z"/>
	<path fill="#E27BF5" d="M425.026,109.755c-0.838,1.29-2.287-0.365-3.556-1.175C422.293,106.567,424.73,108.586,425.026,109.755z"/>
	<path fill="#E27BF5" d="M422.737,101.669c0.479-0.947,0.55-1.843,0.877-2.769c0.761,0.649,1.366,1.32,1.462,2.059   C424.236,100.907,423.701,102.327,422.737,101.669z"/>
	<path fill="#E27BF5" d="M462.431,142.533c1.319,0.649,1.256,1.475,0.897,2.338c-1.386,0.304-3.072-0.837-4.031,1.544   c-0.324-0.231-0.645-0.46-0.969-0.691C459.718,144.782,461.133,143.939,462.431,142.533z"/>
	<path fill="#E27BF5" d="M510.57,176.176c0.115,1.285-1.421,1.281-2.338,0.706C508.874,175.982,509.56,175.294,510.57,176.176z"/>
	<path fill="#E27BF5" d="M503.068,176.941c0.083,0.879-0.173,1.927-0.959,2.37c-1.491-0.318-1.939-1.895-1.061-3.133   C501.706,176.366,502.293,176.185,503.068,176.941z"/>
	<path fill="#E27BF5" d="M498.377,174.275c0.6,0.469,0.709,0.999,0.331,1.593c-0.616-0.327-0.907-0.7-1.053-1.091   C497.865,174.46,498.121,174.364,498.377,174.275z"/>
	<path fill="#E27BF5" d="M500.447,166.239c3.093,2.284,4.612-3.075,7.743-0.592c-0.145,2.21-3.05,1.01-3.214,3.484   c-2.525-0.197-4.529,2.123-7.753-1.453C498.176,166.615,499.33,166.511,500.447,166.239z"/>
	<path fill="#E27BF5" d="M517.999,177.052c-0.046,4.152-6.885,0.661-3.72-1.972C515.663,176.435,516.616,175.699,517.999,177.052z"/>
	<path fill="#E27BF5" d="M466.79,142.584c-0.399-0.428-0.988-0.825-0.491-1.368C467.004,141.105,467.205,141.966,466.79,142.584z"/>
	<path fill="#E27BF5" d="M516.276,169.711c0.331,0.911,2.097,1.635,1.381,2.685c-1.236,0.689-2.66,0.486-3.786,1.714   c-0.164-0.707-2.811-0.793-3.156-2.25C512.23,169.491,514.472,170.664,516.276,169.711z"/>
	<path fill="#E27BF5" d="M513.261,162.129c-1.19-0.082-2.373-0.123-3.714-0.953c2.825-3.038,6.837-1,8.937-4.835   c1.638,1.219,2.181,2.579,0.663,4.207C516.66,158.53,514.891,159.99,513.261,162.129z"/>
	<path fill="#E27BF5" d="M505.959,150.805C509.793,151.472,504.237,155.21,505.959,150.805L505.959,150.805z"/>
	<path fill="#E27BF5" d="M517.541,162.802c-0.504,0.23-0.854,1.215-1.531,0.603C516.438,162.815,516.79,161.834,517.541,162.802z"/>
	<path fill="#E27BF5" d="M483.748,146.522c-0.074,0.692-0.028,1.367-0.797,2.149c-1.894-1.05-1.847-2.351-1.387-3.706   C482.294,145.486,483.021,146.004,483.748,146.522z"/>
	<path fill="#E27BF5" d="M474.552,147.099c0.173,0.821-0.815,1.143-1.531,0.605C473.433,147.027,473.867,146.456,474.552,147.099z"/>
	<path fill="#E27BF5" d="M502.116,159.277c1.01,0.617,1.005,1.368,0.249,2.218C500.638,161.45,500.54,159.301,502.116,159.277z"/>
	<path fill="#E27BF5" d="M469.063,124.502c-1.644-2.649,0.319-5.765,1.097-8.729c1.746,0.725,2.787,2.298,4.523,1.868   c-0.105,0.765,0.206,1.473,0.655,2.166c-2.379,2.557-2.686,4.845-1.67,6.964c-1.266-0.655-1.484-1.445-2.507-2.129   C470.44,124.496,469.937,125.402,469.063,124.502z"/>
	<path fill="#E27BF5" d="M477.231,129.989c0.634,0.133,1.681,0.09,1.861,0.985c-0.582,0.855-1.309,1.012-2.095,0.885   C477.119,131.23,476.731,130.665,477.231,129.989z"/>
	<path fill="#E27BF5" d="M505.292,145.575c-1.024-0.683-1.242-1.475-2.51-2.125C503.633,142.223,506.249,144.686,505.292,145.575z"/>
	<path fill="#E27BF5" d="M504.441,155.499c0.648,1.237-0.228,2.958-1.766,2.477C501.743,157.094,502.865,154.403,504.441,155.499z"/>
	<path fill="#E27BF5" d="M499.132,159.867c-0.267,0.374-0.535,0.75-0.803,1.127c-0.243-0.173-0.485-0.346-0.729-0.52   C497.965,159.559,498.534,159.645,499.132,159.867z"/>
	<path fill="#E27BF5" d="M490.074,155.11c2.542,0.536,2.712,2.925,0.664,4.208c-0.626-0.693-1.051-0.402-1.618-0.815   C490.359,157.256,488.836,156.359,490.074,155.11z"/>
</g>
<g>
	<path fill="#22183B" d="M709.768,1085.322H145.712c-0.542,0-1.06-0.22-1.437-0.608c-0.376-0.39-0.58-0.915-0.562-1.456   c0.007-0.23,0.741-23.5,0.506-62.75l-0.043-6.724c-0.44-7.431-0.293-14.838-0.151-22.002c0.235-11.838,0.477-24.078-1.985-36.39   c-0.011-0.053-0.019-0.105-0.025-0.159c-1.519-12.911-1.325-26.403-1.137-39.45C140.938,911.565,141,907.205,141,903   c0-26.129-3.119-52.784-6.135-78.561c-3.208-27.411-6.524-55.754-6.176-83.855c-0.18-2.251-0.381-4.456-0.583-6.661   c-3.401-35.618-6.583-67.859-11.089-101.658c-1.129-6.199-0.406-12.45,0.293-18.494c0.581-5.021,1.13-9.764,0.702-14.542   c-0.251-1.767-0.441-3.545-0.626-5.266c-0.562-5.246-1.093-10.201-3.225-15.175c-12.762-32.483-19.297-59.999-20.583-86.634   c-0.307-1.53-0.616-3.061-0.927-4.591c-3.797-18.696-7.846-37.254-12.034-55.158l-0.319-1.363c-0.432-1.843-0.86-3.671-1.259-5.435   c-0.014-0.062-0.025-0.124-0.033-0.188c-3.479-27.175-9.724-58.915-29.661-88.297c-6.512-9.768-8.408-20.576-9.333-28.902   c-2.137-23.502-7.411-44.671-15.679-62.959c-0.017-0.036-0.032-0.073-0.046-0.11c-0.814-2.13-1.634-4.255-2.459-6.373   c-7.521-19.323-15.476-38.146-23.646-55.944c-0.236-0.515-0.243-1.104-0.019-1.625c0.224-0.52,0.658-0.921,1.194-1.103l23.031-7.82   c0.073-0.024,0.146-0.045,0.221-0.062c15.663-3.385,30.801-9.409,45.439-15.236c7.59-3.021,15.439-6.145,23.294-8.877   c1.833-0.586,4.211-1.317,6.796-1.925c0.11-0.025,0.222-0.042,0.334-0.049c14.861-0.916,27.979-5.678,41.868-10.72   c2.963-1.076,5.937-2.155,8.94-3.2c0.063-0.022,0.128-0.041,0.193-0.057c1.843-0.439,3.626-0.892,5.302-1.344   c10.23-2.763,18.21-5.999,25.114-10.185c0.081-0.049,0.165-0.093,0.252-0.13c2.08-0.888,3.938-1.71,5.681-2.515   c3.87-1.787,7.635-3.714,11.19-5.729c8.477-5.087,18.161-6.77,27.525-8.396l2.703-0.474c1.678-0.297,3.348-0.604,5.002-0.935   c0.078-0.016,0.157-0.026,0.237-0.032c9.617-0.742,17.909-5.041,26.688-9.591c7.214-3.74,14.673-7.606,22.88-9.258   c1.295-0.413,2.618-0.83,3.947-1.248l1.226-0.387c15.376-4.784,31.663-10.018,46.97-16.771c6.257-2.607,12.73-3.644,18.991-4.645   c6.288-1.007,12.229-1.957,17.993-4.349c31.088-15.175,64.416-24.302,96.644-33.128c12.644-3.462,25.718-7.043,38.597-10.962   c3.728-1.243,6.635-3.345,9.714-5.569c1.464-1.059,2.979-2.153,4.572-3.128c0.064-0.039,0.13-0.074,0.198-0.106   c1.868-0.872,4.012-1.631,5.863-2.259l8.592-2.918c0.958-0.328,2.01,0.117,2.447,1.03c0.05,0.104,5.077,10.652,13.24,31.154   c0.637,1.601,1.294,3.262,1.956,5.004c0.044,0.115,0.077,0.233,0.099,0.354c3.167,17.555,10.553,32.695,18.373,48.726   c3.915,8.025,7.962,16.323,11.386,24.882c6.795,15.154,8.769,31.908,10.679,48.11c1.772,15.045,3.605,30.601,9.321,44.89   c1.574,4.195,3.227,8.352,4.826,12.371c4.538,11.408,9.231,23.205,12.091,35.903c0.539,2.152,1.104,4.426,1.668,6.717   c4.346,17.632,8.609,35.804,12.673,54.011c0.387,1.735,0.773,3.478,1.163,5.246c0.007,0.034,0.014,0.067,0.02,0.102   c4.845,29.083,11.329,56.402,18.192,85.326c1.148,4.837,2.302,9.702,3.457,14.609c6.351,24.247,8.769,48.66,11.106,72.27   c1.732,17.495,3.523,35.586,6.902,53.763c1.122,4.477,2.54,8.71,3.911,12.806c2.301,6.875,4.476,13.368,5.121,20.39   c0.907,6.398,0.602,12.795,0.306,18.982c-0.372,7.785-0.723,15.139,1.147,22.456c0.022,0.086,0.038,0.173,0.049,0.261l0.425,3.619   c0.708,6.04,1.405,12.126,2.09,18.254l0.681,6.145c0.005,0.042,0.008,0.084,0.01,0.126c2.195,46.997,7.697,91.997,15.284,145.104   c0.701,4.205,0.463,8.799,0.233,13.242c-0.11,2.123-0.213,4.129-0.213,6.041c0,0.163-0.02,0.326-0.06,0.485   c-0.433,1.731,0.196,3.688,0.861,5.76c0.569,1.771,1.157,3.599,1.196,5.55c1.062,5.491,0.44,10.619-0.162,15.58   c-0.535,4.414-1.04,8.583-0.378,12.831c0.01,0.065,0.017,0.131,0.021,0.197c0.13,2.354,0.257,4.714,0.383,7.077   c0.558,10.462,1.082,21.083,1.559,31.568c0.097,2.124,0.192,4.251,0.285,6.382c0.118,9.02,1.338,18.085,2.519,26.853   c1.758,13.055,3.575,26.554,1.767,39.914c-1.003,16.093-0.99,30.033-0.875,45.288c0.039,2.167,0.076,4.427,0.112,6.694   c0.357,22.812,0.539,46.075,0.539,69.143C711.768,1084.427,710.872,1085.322,709.768,1085.322z M147.769,1081.322h559.999   c-0.01-22.39-0.191-44.947-0.539-67.08c-0.035-2.264-0.073-4.521-0.111-6.706c-0.116-15.376-0.129-29.408,0.887-45.661   c0.003-0.049,0.008-0.097,0.014-0.146c1.752-12.848,0.048-25.509-1.757-38.913c-1.196-8.885-2.433-18.072-2.553-27.272   c-0.091-2.066-0.187-4.191-0.283-6.313c-0.476-10.475-1-21.086-1.557-31.537c-0.125-2.328-0.25-4.652-0.378-6.972   c-0.724-4.76-0.165-9.369,0.375-13.828c0.596-4.921,1.16-9.568,0.173-14.501c-0.026-0.13-0.039-0.261-0.039-0.393   c0-1.4-0.489-2.921-1.006-4.531c-0.748-2.325-1.592-4.953-0.993-7.7c0.008-1.949,0.115-4.016,0.219-6.017   c0.218-4.229,0.445-8.603-0.192-12.423c-7.607-53.244-13.12-98.333-15.324-145.467l-0.674-6.076   c-0.685-6.121-1.38-12.199-2.087-18.233l-0.41-3.485c-1.981-7.856-1.601-15.812-1.233-23.507   c0.287-6.017,0.584-12.238-0.278-18.277c-0.005-0.034-0.009-0.068-0.012-0.103c-0.598-6.574-2.705-12.868-4.935-19.53   c-1.402-4.187-2.851-8.516-4.014-13.165c-0.01-0.04-0.019-0.079-0.026-0.119c-3.417-18.366-5.219-36.562-6.961-54.16   c-2.43-24.534-4.724-47.708-11.007-71.699c-1.167-4.953-2.32-9.816-3.467-14.65c-6.876-28.975-13.371-56.345-18.238-85.541   c-0.385-1.749-0.768-3.471-1.15-5.187c-4.057-18.177-8.314-36.32-12.653-53.924c-0.563-2.285-1.126-4.555-1.675-6.749   c-2.802-12.437-7.229-23.566-11.916-35.35c-1.606-4.037-3.267-8.213-4.839-12.404c-5.896-14.74-7.761-30.563-9.564-45.866   c-1.96-16.636-3.812-32.348-10.388-47.018c-3.401-8.498-7.416-16.729-11.299-24.689c-7.57-15.518-15.396-31.561-18.681-49.585   c-0.632-1.659-1.258-3.244-1.867-4.773c-6.299-15.818-10.708-25.651-12.384-29.3l-6.894,2.341   c-1.713,0.582-3.683,1.278-5.354,2.049c-1.428,0.88-2.786,1.861-4.222,2.898c-3.187,2.304-6.483,4.686-10.842,6.139   c-12.982,3.952-26.084,7.54-38.755,11.01c-33.546,9.187-65.232,17.864-96,32.89c-0.036,0.018-0.072,0.034-0.109,0.049   c-6.219,2.592-12.692,3.627-18.953,4.629c-6.308,1.01-12.266,1.963-18.047,4.371c-15.462,6.822-31.872,12.096-47.351,16.912   l-1.22,0.384c-1.361,0.429-2.715,0.855-4.038,1.278c-0.072,0.022-0.146,0.042-0.219,0.057c-7.694,1.527-14.609,5.112-21.931,8.907   c-8.714,4.517-17.724,9.188-28.101,10.019c-1.644,0.326-3.302,0.632-4.969,0.928l-2.717,0.475   c-9.004,1.564-18.314,3.182-26.195,7.91c-3.694,2.094-7.558,4.072-11.528,5.904c-1.742,0.805-3.594,1.626-5.657,2.508   c-7.206,4.351-15.48,7.705-26.023,10.552c-1.684,0.455-3.473,0.908-5.319,1.35c-2.954,1.029-5.879,2.091-8.794,3.149   c-13.494,4.898-27.446,9.964-42.815,10.941c-2.388,0.568-4.607,1.251-6.284,1.786c-7.723,2.688-15.53,5.794-23.08,8.8   c-14.756,5.873-30.014,11.945-45.961,15.405L2.74,183.182c7.878,17.272,15.55,35.478,22.815,54.145   c0.821,2.108,1.637,4.223,2.447,6.342c8.438,18.684,13.817,40.267,15.989,64.151c0.871,7.836,2.648,18.035,8.672,27.071   c20.377,30.029,26.756,62.305,30.298,89.927c0.391,1.726,0.81,3.513,1.231,5.312l0.319,1.365   c4.197,17.941,8.254,36.537,12.059,55.271c0.322,1.583,0.641,3.165,0.959,4.748c0.02,0.099,0.032,0.198,0.037,0.299   c1.247,26.232,7.696,53.386,20.294,85.455c2.345,5.47,2.934,10.959,3.502,16.269c0.183,1.703,0.371,3.465,0.616,5.18   c0.005,0.034,0.009,0.068,0.012,0.103c0.473,5.205-0.127,10.394-0.708,15.41c-0.696,6.02-1.354,11.705-0.316,17.413   c4.53,33.961,7.716,66.24,11.122,101.908c0.206,2.259,0.412,4.508,0.595,6.807c0.005,0.062,0.007,0.123,0.006,0.185   c-0.354,27.873,2.952,56.118,6.147,83.433C141.867,849.865,145,876.638,145,903c0,4.233-0.063,8.609-0.124,12.841   c-0.186,12.891-0.377,26.22,1.101,38.847c2.531,12.712,2.285,25.146,2.046,37.174c-0.141,7.103-0.287,14.447,0.148,21.736   c0.002,0.036,0.003,0.071,0.003,0.106l0.044,6.78C148.414,1053.169,147.939,1074.807,147.769,1081.322z"/>
</g>
</g></g></g><!--ITEM 5--><g><defs><clipPath id="clip-path-id-viewbox-item-5"><rect x="0.0" y="0.0" width="177.016" height="141.266"/></clipPath></defs><g transform="translate(735.0 387.0) rotate(-11.937427951384457 214.5 170.5) scale(2.4235097392326117 2.4138858607166624)"><g clip-path="url(#clip-path-id-viewbox-item-5)" transform="translate(-0.0 -0.0)"><path fill="#FFFFFF" d="M141.94,141.266c0,0-6.518-3.391-16.76-8.719c-1.138-0.592-2.322-1.208-3.548-1.846  c-12.624-9.068-27.624-13.068-40.624-22.068c-4-2-6-7-10-9c-5-2-11-1-15-4c-13-9-24-16-39.162-19.535  c-1.208-0.557-2.316-1.117-3.359-1.659C5.15,70.101,0,67.422,0,67.422L35.076,0c0,0,7.262,3.778,18.501,9.625  c0.651,0.368,1.274,0.701,1.914,1.047c32.518,19.961,70.518,31.961,101.563,52.65c0.933,0.601,2.065,1.211,3.203,1.803  c10.242,5.328,16.76,8.719,16.76,8.719L141.94,141.266z"/>
</g></g></g><!--ITEM 6--><g><defs><clipPath id="clip-path-id-viewbox-item-6"><rect x="0.0" y="0.0" width="177.016" height="141.266"/></clipPath></defs><g transform="translate(677.0 690.0) rotate(162.91336025485973 203.5 162.0) scale(2.2992271885027344 2.2935455098891455)"><g clip-path="url(#clip-path-id-viewbox-item-6)" transform="translate(-0.0 -0.0)"><path fill="#FFFFFF" d="M141.94,141.266c0,0-6.518-3.391-16.76-8.719c-1.138-0.592-2.322-1.208-3.548-1.846  c-12.624-9.068-27.624-13.068-40.624-22.068c-4-2-6-7-10-9c-5-2-11-1-15-4c-13-9-24-16-39.162-19.535  c-1.208-0.557-2.316-1.117-3.359-1.659C5.15,70.101,0,67.422,0,67.422L35.076,0c0,0,7.262,3.778,18.501,9.625  c0.651,0.368,1.274,0.701,1.914,1.047c32.518,19.961,70.518,31.961,101.563,52.65c0.933,0.601,2.065,1.211,3.203,1.803  c10.242,5.328,16.76,8.719,16.76,8.719L141.94,141.266z"/>
</g></g></g><!--ITEM 7--><g><defs><clipPath id="clip-path-id-viewbox-item-7"><rect x="0.0" y="0.0" width="177.016" height="141.266"/></clipPath></defs><g transform="translate(1031.0 997.0) rotate(34.07157108613328 -194.0 154.0) scale(-2.191892258326931 2.180284003227953)"><g clip-path="url(#clip-path-id-viewbox-item-7)" transform="translate(-0.0 -0.0)"><path fill="#FFFFFF" d="M141.94,141.266c0,0-6.518-3.391-16.76-8.719c-1.138-0.592-2.322-1.208-3.548-1.846  c-12.624-9.068-27.624-13.068-40.624-22.068c-4-2-6-7-10-9c-5-2-11-1-15-4c-13-9-24-16-39.162-19.535  c-1.208-0.557-2.316-1.117-3.359-1.659C5.15,70.101,0,67.422,0,67.422L35.076,0c0,0,7.262,3.778,18.501,9.625  c0.651,0.368,1.274,0.701,1.914,1.047c32.518,19.961,70.518,31.961,101.563,52.65c0.933,0.601,2.065,1.211,3.203,1.803  c10.242,5.328,16.76,8.719,16.76,8.719L141.94,141.266z"/>
</g></g></g><!--ITEM 8--><g><defs><clipPath id="clip-path-id-viewbox-item-8"><rect x="0.0" y="0.0" width="177.016" height="141.266"/></clipPath></defs><g transform="translate(625.0 1275.0) rotate(-27.16215614683471 198.5 157.5) scale(2.2427351199891534 2.229835912392225)"><g clip-path="url(#clip-path-id-viewbox-item-8)" transform="translate(-0.0 -0.0)"><path fill="#FFFFFF" d="M141.94,141.266c0,0-6.518-3.391-16.76-8.719c-1.138-0.592-2.322-1.208-3.548-1.846  c-12.624-9.068-27.624-13.068-40.624-22.068c-4-2-6-7-10-9c-5-2-11-1-15-4c-13-9-24-16-39.162-19.535  c-1.208-0.557-2.316-1.117-3.359-1.659C5.15,70.101,0,67.422,0,67.422L35.076,0c0,0,7.262,3.778,18.501,9.625  c0.651,0.368,1.274,0.701,1.914,1.047c32.518,19.961,70.518,31.961,101.563,52.65c0.933,0.601,2.065,1.211,3.203,1.803  c10.242,5.328,16.76,8.719,16.76,8.719L141.94,141.266z"/>
</g></g></g><!--ITEM 9--><g><defs><clipPath id="clip-path-id-viewbox-item-9"><rect x="0.0" y="0.0" width="177.016" height="141.266"/></clipPath></defs><g transform="translate(1020.0 1559.0) rotate(27.393262790504057 -193.0 153.5) scale(-2.180593844624215 2.1732051590616286)"><g clip-path="url(#clip-path-id-viewbox-item-9)" transform="translate(-0.0 -0.0)"><path fill="#FFFFFF" d="M141.94,141.266c0,0-6.518-3.391-16.76-8.719c-1.138-0.592-2.322-1.208-3.548-1.846  c-12.624-9.068-27.624-13.068-40.624-22.068c-4-2-6-7-10-9c-5-2-11-1-15-4c-13-9-24-16-39.162-19.535  c-1.208-0.557-2.316-1.117-3.359-1.659C5.15,70.101,0,67.422,0,67.422L35.076,0c0,0,7.262,3.778,18.501,9.625  c0.651,0.368,1.274,0.701,1.914,1.047c32.518,19.961,70.518,31.961,101.563,52.65c0.933,0.601,2.065,1.211,3.203,1.803  c10.242,5.328,16.76,8.719,16.76,8.719L141.94,141.266z"/>
</g></g></g><!--ITEM 10--><g><defs><clipPath id="clip-path-id-viewbox-item-10"><rect x="0.0" y="0.0" width="120.457" height="129.486"/></clipPath></defs><g transform="translate(481.0 322.0) rotate(32.757566382925994 97.5 104.5) scale(1.6188349369484547 1.6140741083978192)"><g clip-path="url(#clip-path-id-viewbox-item-10)" transform="translate(-0.0 -0.0)"><path fill="#1F78F0" d="M120.457,16.965c0,0-21.643-9.512-32.465-14.268c-1.202-0.528-2.271-0.998-3.162-1.389  C84.042,0,83.042,0,82.042,0c-4.5,9-7.347,18.413-11.078,27.473c-0.433,1.048-0.875,2.089-1.332,3.173  C66.042,42,62.042,52,54.857,61.771c-0.536,1.215-1.046,2.376-1.522,3.459c-2.379,5.413-3.896,8.864-3.896,8.864L16.911,59.797  L0,98.273c0,0,3.985,1.751,9.165,4.028c0.74,0.325,1.504,0.661,2.285,1.004c4.83,1.123,9.731,2.472,14.504,4.237  c0.968,0.367,1.93,0.749,2.91,1.174C41.042,114,50.042,124,63.109,126.022c1.143,0.498,2.217,0.969,3.176,1.391  c2.877,1.264,4.718,2.074,4.718,2.074l0.002-0.006l0.006,0.003c0,0,1.439-3.273,3.477-7.91c0.291-0.662,0.595-1.353,0.908-2.065  c2.324-4.754,3.485-10.131,5.066-15.444c0.323-1.123,0.662-2.242,1.038-3.41c1.476-5.272,4.074-9.91,6.895-14.498  c0.564-0.918,1.137-1.833,1.712-2.751C99.042,74,105.042,63,106.132,49.576c0.325-0.76,0.663-1.527,0.998-2.29  C114.174,31.259,120.457,16.965,120.457,16.965z"/>
</g></g></g><!--ITEM 11--><g><defs><clipPath id="clip-path-id-viewbox-item-11"><rect x="0.0" y="0.0" width="83.325" height="83.325"/></clipPath></defs><g transform="translate(340.0 1321.0) rotate(-26.196199323036602 97.0 97.0) scale(2.328232823282328 2.328232823282328)"><g clip-path="url(#clip-path-id-viewbox-item-11)" transform="translate(-0.0 -0.0)"><path fill="#d360ef" d="M83.325,44.573l-6.941-26.119l-25.132,6.678L44.573,0L18.454,6.941c0,0,0.417,1.571,1.044,3.927  c0.626,2.356,1.461,5.498,2.255,8.639c2.519,4.056,1.519,9.056,3.519,13.056c-1,0-3,0-4.198,0.553  c-2.241,0.626-5.366,1.461-8.508,2.296C6.283,37.082,0,38.751,0,38.751l6.941,26.119l25.132-6.678l6.678,25.132l26.119-6.941  l-6.678-25.132L83.325,44.573z"/>
</g></g></g><!--ITEM 12--><g><defs><clipPath id="clip-path-id-viewbox-item-12"><rect x="0.0" y="0.0" width="120.457" height="129.486"/></clipPath></defs><g transform="translate(428.0 672.0) rotate(23.66991751654895 91.5 98.0) scale(1.5192143254439345 1.51367715428695)"><g clip-path="url(#clip-path-id-viewbox-item-12)" transform="translate(-0.0 -0.0)"><path fill="#1F78F0" d="M120.457,16.965c0,0-21.643-9.512-32.465-14.268c-1.202-0.528-2.271-0.998-3.162-1.389  C84.042,0,83.042,0,82.042,0c-4.5,9-7.347,18.413-11.078,27.473c-0.433,1.048-0.875,2.089-1.332,3.173  C66.042,42,62.042,52,54.857,61.771c-0.536,1.215-1.046,2.376-1.522,3.459c-2.379,5.413-3.896,8.864-3.896,8.864L16.911,59.797  L0,98.273c0,0,3.985,1.751,9.165,4.028c0.74,0.325,1.504,0.661,2.285,1.004c4.83,1.123,9.731,2.472,14.504,4.237  c0.968,0.367,1.93,0.749,2.91,1.174C41.042,114,50.042,124,63.109,126.022c1.143,0.498,2.217,0.969,3.176,1.391  c2.877,1.264,4.718,2.074,4.718,2.074l0.002-0.006l0.006,0.003c0,0,1.439-3.273,3.477-7.91c0.291-0.662,0.595-1.353,0.908-2.065  c2.324-4.754,3.485-10.131,5.066-15.444c0.323-1.123,0.662-2.242,1.038-3.41c1.476-5.272,4.074-9.91,6.895-14.498  c0.564-0.918,1.137-1.833,1.712-2.751C99.042,74,105.042,63,106.132,49.576c0.325-0.76,0.663-1.527,0.998-2.29  C114.174,31.259,120.457,16.965,120.457,16.965z"/>
</g></g></g><!--ITEM 13--><g><defs><clipPath id="clip-path-id-viewbox-item-13"><rect x="0.0" y="0.0" width="542.517" height="708.819"/></clipPath></defs><g transform="translate(1815.0 645.0) rotate(0.0 -473.0 617.0) scale(-1.743724159795914 1.7409239876470581)"><g clip-path="url(#clip-path-id-viewbox-item-13)" transform="translate(-0.0 -0.0)"><g>
	<path fill="#22183B" d="M354.76,667.63c2.638,2.213,5.178,4.588,7.663,7.175c0.986,1.21,1.989,2.412,3.014,3.611   c11.873,13.066,17.93,30.361,45.291,30.361l9.183-0.085c0,0-7.495-4.055-9.85-6.338c-13.751-11.872-25.751-25.872-39.383-38.342   c-1.224-1.213-2.44-2.413-3.648-3.601c-1.208-1.184-2.406-2.357-3.594-3.516c-3.03-2.723-6.056-5.401-9.038-8.148   c-1.721-1.683-3.24-3.172-4.583-4.489c-4.028-3.885-6.506-6.275-6.506-6.275s1.823,5.035,3.95,10.909   c0.429,1.192,0.87,2.412,1.315,3.637c1.736,3.954,2.736,8.954,5.204,12.849C354.394,666.786,354.76,667.63,354.76,667.63z"/>
	<path fill="#22183B" d="M258.81,706.814c0,0-2.296-2.969-5.904-7.636c-1.19-1.542-2.516-3.264-3.905-5.081   c-9.691-12.617-19.691-25.617-30.128-38.979c-1.55-1.978-2.93-3.753-4.16-5.336c-3.608-4.666-5.904-7.636-5.904-7.636h39.5   l47,64.667H258.81z"/>
	<path fill="#1F78F0" d="M243.643,547.147c0,0,7.252,15.08,17.825,36.127c0.556,1.235,1.122,2.427,1.705,3.687   c0.814,1.952,1.646,3.899,2.497,5.84c0.869,1.979,1.757,3.952,2.682,5.958c9.958,21.722,22.958,40.722,33.668,61.418   c1.138,2.051,2.287,4.073,3.427,6.059c10.256,17.879,19.744,32.899,26.53,40.578h37.333c0,0-0.722-1.912-1.926-5.099   c-0.602-1.593-1.324-3.504-2.078-5.624c-0.996-8.611-5.996-15.611-8.239-24.001c-1.621-3.897-3.302-7.766-4.95-11.644   c-1.647-3.878-3.261-7.766-4.745-11.7c-0.812-2.161-1.535-4.074-2.137-5.667c-1.204-3.187-1.926-5.099-1.926-5.099   s2.584,2.417,6.783,6.345c1.4,1.334,2.986,2.844,4.796,4.558c3.084,2.72,6.151,5.415,9.201,8.204   c1.322,1.239,2.632,2.485,3.932,3.734c1.3,1.257,2.591,2.518,3.882,3.788c12.406,14.872,28.406,24.872,40.956,38.426   c2.496,2.337,3.95,3.696,3.95,3.696l123.707-1.417c0,0,3.793-20.333-11.207-29.333c-1-0.6-2.076-1.264-3.215-1.987   c-1.14-0.722-2.338-1.499-3.556-2.311c-19.228-11.202-36.228-25.202-49.836-42.484c-1.29-1.563-2.469-3.052-3.682-4.593   c-7.144-9.605-13.526-19.59-20.097-30.009c-2.494-4.023-4.538-7.492-6.513-10.95c-2.784-4.687-5.12-8.504-7.371-12.006   c-2.251-3.502-4.582-6.988-7.045-10.445c-1.298-1.715-2.601-3.405-3.913-5.09c-6.479-8.354-13.187-16.583-18.603-25.541   c-1.194-1.831-2.33-3.647-3.409-5.495c-3.192-5.43-5.863-11.147-7.622-17.386c-0.91-2.015-1.804-3.852-2.704-5.699   c-2.646-4.933-5.352-9.875-8.317-14.748c-1.212-2.277-2.328-4.377-3.391-6.424c-3.191-5.92-5.975-11.342-8.225-16.083   L243.643,547.147z"/>
	<path fill="#1F78F0" d="M249.31,561.48c0,0,2.539,4.906,6.741,12.922c0.84,1.603,1.747,3.331,2.714,5.168   c2.636,5.477,5.364,10.961,8.173,16.447c0.985,1.926,1.979,3.853,3.031,5.877c9.342,19.586,22.342,37.586,32.148,57.696   c0.61,1.101,1.232,2.202,1.852,3.293c12.393,21.814,23.296,39.668,28.008,43.931H285.31c0,0-12.5-16.167-25-32.333   c-1.785-2.308-3.569-4.617-5.312-6.873c-3.688-4.127-6.688-9.127-9.763-12.628c-1.465-1.893-2.817-3.64-4.021-5.197   c-3.608-4.666-5.904-7.636-5.904-7.636s-0.187,2.587-0.446,6.765c-5.554,17.569,8.446,57.569-15.393,57.817   c-1.756-0.013-3.691-0.028-5.786-0.044C169.692,706.35,55.31,705.48,55.31,705.48s-2.082-10.552,2.607-23.579   c0.781-2.171,1.745-4.411,2.896-6.682c6.497-17.739,27.497-22.739,41.05-32.293c1.744-1.154,3.419-2.351,5.053-3.607   c4.856-3.768,9.34-8.067,13.175-13.308c0.818-1.141,1.48-2.286,2.002-3.459c2.611-5.863,1.717-12.406-0.783-22.406   c-6-24-23.667-68-23.667-68s7.965,1.541,20.245,3.915c1.352,0.444,2.587,0.743,3.89,1.077c1.853,0.634,3.701,1.245,5.546,1.831   c1.925,0.646,3.845,1.265,5.84,1.916c6.764,2.397,13.463,4.529,20.436,5.98c3.487,0.726,7.042,1.281,10.753,1.585   c18.956-3.97,36.956,2.03,54.75,7.188c5.92,1.145,11.25,2.176,15.725,3.041C243.779,560.411,249.31,561.48,249.31,561.48z"/>
	<path fill="#7C5EF1" d="M371.81,464.73c0,0-11.711-23.244-26.617-60.354c-0.552-1.374-1.109-2.768-1.666-4.18   c-7.217-26.716-18.217-51.716-28.217-77.716c-2-7-3-15-4.895-22.44c-0.343-1.8-0.683-3.598-1.029-5.391   c-1.733-8.967-3.63-17.811-6.884-26.127c-0.634-2.384-1.204-4.625-1.776-6.868c-2.53-10.492-5.111-21.017-7.751-31.619   c-0.438-2.339-0.801-4.554-1.144-6.771c-1.481-10.452-2.458-20.941-4.02-31.204c-0.82-4.622-1.676-8.695-2.762-12.687   c-2.171-7.984-5.259-15.646-9.606-22.814c-0.882-2.217-1.624-4.286-2.405-6.389c-3.946-13.204-7.984-26.292-11.142-39.734   c-0.804-2.287-1.642-4.397-2.498-6.502c-4.332-9.674-9.09-19.237-13.376-29.082c-0.94-1.831-1.884-3.586-2.846-5.312   c-10.45-18.476-22.978-33.448-38.867-45.059C172.738,1.409,135.269-3.969,100.854,7.453c-2.024,0.672-4.038,1.402-6.04,2.19   c-12.252,4.919-23.878,11.379-34.193,19.484c-3.438,2.702-6.731,5.587-10.002,8.888c-2.462,2.693-4.791,5.408-7.003,8.149   c-2.212,2.742-4.307,5.511-6.299,8.312c-5.503,8.502-10.755,17.503-15.219,26.847c-0.938,2.063-1.84,4.121-2.742,6.348   c-5.651,18.455-10.022,37.603-12.607,56.979c-0.287,2.246-0.553,4.49-0.795,6.821c-1.822,10.504-2.983,20.756-3.16,31.026   c-0.026,2.104-0.012,4.209,0.053,6.367C2.31,208.48,10.31,225.48,14.31,245.48c0.167,1.333,0.222,2.667,0.203,4   c-0.019,1.336-0.113,2.672-0.245,4.012c-1.414,9.639-1.175,19.151,0.05,28.558c0.245,1.881,0.529,3.759,0.848,5.632   c3.001,13.299,7.314,26.326,11.162,39.671c0.528,2.285,1.049,4.525,1.54,7.049c0.601,10.866,2.862,21.024,5.848,30.941   c0.748,2.239,1.509,4.441,2.41,6.838c4.244,8.458,7.24,17.211,9.855,26.015c0.649,1.914,1.265,3.811,1.966,5.82   c2.509,5.839,4.715,11.817,6.745,17.855c0.677,2.013,1.334,4.032,1.976,6.056c2.767,10.23,6.465,20.018,10.333,29.796   c0.774,1.956,1.554,3.911,2.335,5.869c6.974,23.888,21.974,44.888,28.308,68.556c0,0,1.053,0.203,2.984,0.577   c3.379,0.654,9.446,1.827,17.261,3.338c1.352,0.444,2.587,0.743,3.89,1.077c1.853,0.634,3.701,1.245,5.546,1.831   c1.925,0.646,3.845,1.265,5.84,1.915c6.764,2.397,13.463,4.529,20.436,5.98c3.487,0.726,7.042,1.281,10.753,1.585   c18.956-3.97,36.956,2.03,54.75,7.188c5.92,1.145,11.25,2.176,15.725,3.041c8.95,1.731,14.481,2.801,14.481,2.801l-5.667-14.333   L371.81,464.73z"/>
	<path fill="#F5EAF9" d="M319.322,415.225c-2.646-5.242-5.403-10.446-7.884-15.755l-3.815-7.933l-3.641-7.999   c-2.499-5.31-4.728-10.715-7.052-16.093c-1.186-2.682-2.199-5.42-3.309-8.129c-1.065-2.723-2.225-5.417-3.217-8.166   c-2.04-5.479-4.125-10.949-5.977-16.495c-1.986-5.506-3.716-11.092-5.526-16.661c-0.571-1.866-1.135-3.734-1.691-5.601   c-6.9-20.913-10.9-41.913-15.002-62.965c-0.356-1.945-0.706-3.893-1.048-5.844c-1.71-9.755-3.247-19.584-4.671-29.477   c-1.807-12.697-3.455-25.508-5.103-38.392c-0.235-1.841-0.471-3.683-0.707-5.527c-0.369-12.708-4.369-25.708-4.723-39.357   c-0.201-1.838-0.418-3.665-0.648-5.484c-0.26-2.044-0.537-4.079-0.833-6.104c-0.295-2.025-0.607-4.042-0.936-6.05   c-0.229-5.714-3.229-11.714-3.379-17.875c-0.417-1.981-0.85-3.946-1.296-5.907c-0.446-1.961-0.908-3.911-1.391-5.845   c-0.483-1.934-0.985-3.851-1.512-5.746c-3.652-9.341-5.652-18.341-8.974-27.754c-0.693-1.492-1.365-2.982-2.048-4.467   s-1.377-2.963-2.119-4.425l-1.257-2.322c-3.52-2.572-6.95-5.271-10.331-8.012c-4.407-3.572-8.382-7.603-12.653-11.319   c-6.828-4.752-14.101-8.776-21.66-12.257c-5.367-2.046-10.776-3.744-16.289-5.109c2.593,1.06,5.113,2.254,7.542,3.587   c4.9,2.622,9.298,6.008,13.374,9.649l1.513,1.386l0.756,0.689l0.704,0.754l2.806,2.998c0.916,1.014,1.732,2.136,2.603,3.188   l1.287,1.597c0.419,0.541,0.786,1.134,1.181,1.696l2.333,3.396c0.73,1.169,1.416,2.378,2.127,3.559   c1.485,2.312,2.644,4.871,3.907,7.333c0.659,1.212,1.178,2.521,1.717,3.814c2.831,3.675,2.831,8.675,3.831,13.675c0,6,0,11,2,17   c16,65,12,128,17,192c2,21,13,40,12.365,61.387c0.435,2.204,0.913,4.45,1.412,6.69c4.995,22.395,12.155,44.152,23.765,64.342   c0,0,0.863,2.166,1.737,4.361s1.746,4.389,1.746,4.389l3.695,8.679c2.409,5.819,5.083,11.492,7.66,17.225   c10.504,22.815,22.125,45.021,34.719,66.552l42.235-25.563C342.067,456.485,330.111,436.116,319.322,415.225z"/>
	<g>
		<path fill="#22183B" d="M249.312,563.48c-0.125,0-0.253-0.012-0.381-0.036l-30.206-5.842c-0.06-0.012-0.119-0.026-0.177-0.043    c-1.263-0.366-2.526-0.736-3.791-1.106c-16.16-4.735-32.873-9.632-49.992-6.045c-0.188,0.037-0.381,0.054-0.573,0.035    c-3.56-0.29-7.158-0.82-10.998-1.619c-7.765-1.617-15.14-4.084-20.697-6.054l-1.168-0.379c-1.571-0.511-3.104-1.01-4.641-1.526    c-1.803-0.572-3.639-1.178-5.481-1.808l-0.436-0.111c-1.079-0.274-2.193-0.558-3.385-0.943l-20.123-3.892    c-1.084-0.21-1.793-1.259-1.584-2.344c0.21-1.084,1.259-1.789,2.344-1.584l20.245,3.915c0.083,0.017,0.165,0.037,0.245,0.063    c1.108,0.364,2.146,0.629,3.245,0.908l0.517,0.132c0.051,0.013,0.102,0.028,0.151,0.045c1.839,0.629,3.672,1.235,5.504,1.816    c1.556,0.522,3.077,1.018,4.636,1.524l1.219,0.396c5.487,1.943,12.694,4.355,20.224,5.924c3.574,0.744,6.922,1.243,10.224,1.524    c17.999-3.677,35.104,1.333,51.649,6.182c1.232,0.361,2.462,0.722,3.692,1.078l30.116,5.824c1.085,0.21,1.794,1.259,1.584,2.344    C251.088,562.816,250.251,563.48,249.312,563.48z"/>
	</g>
	<g>
		<path fill="#22183B" d="M243.645,549.147c-0.658,0-1.302-0.324-1.684-0.918c-0.598-0.93-0.329-2.167,0.601-2.765l128.166-82.417    c0.929-0.596,2.167-0.326,2.764,0.601c0.598,0.93,0.329,2.167-0.601,2.765L244.725,548.83    C244.39,549.045,244.015,549.147,243.645,549.147z"/>
	</g>
	<g>
		<path fill="#22183B" d="M230.649,708.819c-0.005,0-0.01,0-0.015,0L55.295,707.48c-1.029-0.008-1.883-0.795-1.977-1.819    c-0.877-9.645-0.431-17.638,1.365-24.437c0.438-1.655,0.965-3.274,1.568-4.812c5.988-15.527,20.107-23.148,33.762-30.518    c3.471-1.874,6.749-3.644,9.904-5.543c1.675-1.082,3.322-2.224,4.982-3.457c5.276-3.954,9.561-8.056,13.09-12.53    c0.525-0.894,0.979-1.872,1.349-2.909c5.461-15.305-6.232-45.89-22.085-84.283l-1.87-4.521c-0.058-0.14-0.1-0.285-0.125-0.435    c-2.462-14.702-8.477-27.831-14.845-41.732c-3.501-7.643-7.121-15.544-10.068-23.689l-2.536-6.009    c-4.104-9.758-8.356-20.182-11.284-30.914c-0.685-2.241-1.297-4.162-1.91-5.986c-2.217-6.613-4.489-11.945-7.151-16.784    c-0.033-0.061-0.063-0.123-0.09-0.187c-0.467-1.109-0.91-2.187-1.352-3.263c-0.399-0.972-0.798-1.942-1.215-2.935    c-0.015-0.035-0.028-0.071-0.041-0.106c-4.024-11.364-8.386-23.353-13.729-37.729c-0.015-0.039-0.028-0.079-0.041-0.119    c-0.569-1.89-1.11-3.768-1.608-5.581c-2.822-10.29-4.564-19.662-5.323-28.645c-0.531-1.981-1.071-3.902-1.615-5.824    c-0.625-2.117-1.261-4.257-1.898-6.399c-2.188-7.362-4.451-14.975-6.509-22.506c-0.011-0.04-0.021-0.079-0.029-0.119    c-0.443-2.128-0.841-4.342-1.216-6.77c-1.54-11.323-1.705-21.765-0.51-31.957c0.137-1.508,0.211-2.823,0.227-4.089    c0.019-1.429-0.04-2.752-0.177-4.041c-1.341-5.345-2.92-10.629-4.448-15.74c-4.314-14.435-8.389-28.068-7.84-43.713    c0.022-1.873,0.096-3.852,0.224-6.002c0.45-7.036,1.399-14.079,2.317-20.889c0.363-2.691,0.724-5.364,1.05-8.013    c0.199-2.268,0.423-4.504,0.665-6.76c2.963-26.016,8.258-48.357,16.187-68.313c0.017-0.043,0.036-0.086,0.056-0.128    c0.809-1.685,1.66-3.392,2.528-5.075c2.498-4.842,5.326-9.844,8.407-14.867c2.385-3.792,4.817-7.225,7.665-10.82    c2.644-3.338,5.465-6.581,8.386-9.642c3.01-3.009,6.086-5.69,9.713-8.474c8.809-6.758,19.205-12.838,31.78-18.588    c1.368-0.584,2.753-1.146,4.282-1.736c8.437-3.157,17.327-5.429,25.73-6.574c26.022-3.55,48.164-0.814,67.689,8.358    c23.586,11.081,42.868,31.144,58.948,61.334c0.366,0.74,0.696,1.4,1.021,2.051c0.363,0.726,0.72,1.44,1.077,2.167    c0.861,1.847,1.708,3.655,2.555,5.465c3.433,7.329,6.983,14.909,10.203,22.528c0.774,2,1.575,4.117,2.351,6.434    c0.014,0.042,0.026,0.083,0.037,0.125c3.07,11.657,6.336,23.203,9.495,34.369l1.883,6.665c0.33,0.857,0.646,1.703,0.963,2.548    c0.478,1.274,0.955,2.548,1.478,3.867c4.513,7.04,7.609,14.862,9.738,24.597c0.881,4.031,1.539,8.128,2.3,12.871l0.11,0.683    c1.265,8.757,2.636,17.177,4.08,25.059c0.307,1.674,0.621,3.348,0.942,5.021c2.444,12.055,5.924,24.029,9.289,35.61l1.539,5.146    c0.444,1.424,0.891,2.858,1.374,4.377c2.807,8.333,4.983,16.768,7.385,26.858l1.336,5.514c0.015,0.062,0.027,0.125,0.037,0.189    c1.518,10.521,4.886,19.868,8.3,28.402c2.766,7.946,5.5,15.689,8.22,23.393c5.121,14.504,10.416,29.5,15.448,44.585    c0.74,1.847,1.489,3.699,2.248,5.559c9.814,24.044,20.821,48.229,32.714,71.881c0.73,1.479,1.461,2.947,2.202,4.438l0.75,1.509    c0.017,0.033,0.033,0.067,0.047,0.102c2.417,5.643,4.999,11.145,7.89,16.822l0.955,2.008c0.647,1.358,1.303,2.735,1.973,4.187    c0.018,0.038,0.034,0.077,0.049,0.116c2.097,5.422,4.629,10.797,7.74,16.432c0.94,1.703,1.949,3.456,3,5.212    c5.207,9.054,11.061,17.622,17.104,26.336l3.579,5.158c2.002,3.014,3.986,6.026,5.975,9.06c1.978,3.017,3.961,6.055,6.164,9.491    c1.947,2.602,3.914,5.49,6.009,8.828c1.267,2.018,2.543,4.128,3.941,6.438c0.657,1.087,1.341,2.218,2.064,3.405    c4.772,8.014,9.408,14.969,14.183,21.279c1.043,1.379,2.105,2.742,3.156,4.053c16.25,21.464,35.444,37.523,57.085,47.777    c0.09,0.043,0.176,0.092,0.258,0.147c1.614,1.083,2.989,2.086,4.205,3.066c7.438,5.996,12.392,13.782,12.392,32.294    c0,1.096-0.881,1.987-1.977,2l-123.708,1.417c-0.553,0.016-1.007-0.186-1.382-0.533l-4.034-3.744    c-16.425-13.279-30.287-26.431-42.373-40.203c-1.353-1.361-2.613-2.598-3.851-3.776c-1.385-1.32-2.695-2.525-4.007-3.684    c-3.076-2.548-6.318-5.168-9.863-7.968c-0.046-0.036-0.09-0.074-0.133-0.115c-1.643-1.551-3.147-2.96-4.498-4.225l-0.817-0.761    l2.516,6.201c0.487,1.22,0.989,2.461,1.512,3.747c1.703,3.065,3.309,6.323,4.907,9.955c1.338,3.043,2.663,6.323,4.169,10.324    c1.077,2.861,2.12,5.756,3.169,8.672l0.663,1.838c1.154,3.198,2.505,6.92,3.948,10.622c0.825,2.155,1.61,4.09,2.266,5.707    l2.139,5.273c0.25,0.617,0.177,1.317-0.195,1.869s-0.994,0.883-1.659,0.883h-37.333c-1.104,0-2-0.896-2-2s0.896-2,2-2h34.364    l-1.007-2.482c-0.68-1.678-1.475-3.637-2.306-5.809c-1.456-3.734-2.818-7.485-3.98-10.706l-0.663-1.841    c-1.043-2.896-2.079-5.773-3.149-8.617c-1.479-3.932-2.778-7.148-4.086-10.122c-1.565-3.559-3.135-6.74-4.799-9.727    c-0.04-0.071-0.075-0.145-0.105-0.22c-0.543-1.335-1.064-2.621-1.564-3.874l-5.89-14.517c-0.352-0.868-0.054-1.865,0.717-2.397    c0.771-0.534,1.808-0.461,2.496,0.179l7.423,6.882c1.336,1.252,2.823,2.645,4.445,4.176c3.543,2.799,6.787,5.421,9.916,8.013    c1.398,1.233,2.745,2.472,4.166,3.827c1.278,1.217,2.578,2.492,3.974,3.898c0.029,0.029,0.057,0.06,0.084,0.09    c11.957,13.631,25.687,26.655,41.975,39.819c0.036,0.029,0.07,0.06,0.104,0.091l3.496,3.245l120.913-1.385    c-0.316-15.54-4.419-21.993-10.883-27.204c-1.094-0.882-2.338-1.791-3.801-2.776c-22.173-10.535-41.817-26.976-58.391-48.87    c-1.04-1.295-2.125-2.688-3.191-4.097c-4.864-6.43-9.581-13.505-14.419-21.63c-0.715-1.174-1.401-2.309-2.061-3.398    c-1.385-2.29-2.65-4.382-3.906-6.382c-2.053-3.269-3.972-6.087-5.867-8.616c-0.029-0.039-0.057-0.079-0.083-0.12    c-2.21-3.448-4.198-6.493-6.181-9.517c-1.984-3.027-3.964-6.032-5.94-9.008l-3.555-5.124c-6.094-8.787-12-17.433-17.268-26.592    c-1.056-1.765-2.088-3.559-3.051-5.302c-3.188-5.774-5.788-11.291-7.946-16.863c-0.653-1.414-1.293-2.759-1.925-4.084    l-0.934-1.967c-2.897-5.687-5.508-11.251-7.954-16.957l-0.724-1.456c-0.743-1.495-1.475-2.967-2.2-4.436    c-11.934-23.732-22.984-48.013-32.838-72.153c-0.77-1.886-1.53-3.765-2.28-5.637c-0.015-0.037-0.028-0.074-0.041-0.111    c-5.027-15.07-10.323-30.069-15.445-44.575c-2.722-7.709-5.458-15.458-8.194-23.324c-3.463-8.654-6.916-18.241-8.5-29.138    l-1.317-5.434c-2.378-9.993-4.528-18.327-7.296-26.548c-0.496-1.56-0.945-3.001-1.391-4.433l-0.641-2.052l-0.92-3.168    c-3.387-11.659-6.89-23.715-9.371-35.951c-0.328-1.704-0.645-3.39-0.953-5.075c-1.453-7.931-2.832-16.401-4.1-25.176l-0.105-0.652    c-0.752-4.684-1.401-8.729-2.258-12.65c-2.04-9.329-4.995-16.779-9.297-23.447c-0.071-0.109-0.13-0.225-0.178-0.346    c-0.561-1.408-1.069-2.765-1.578-4.122c-0.323-0.862-0.646-1.724-0.983-2.601c-0.022-0.058-0.042-0.115-0.058-0.175l-1.908-6.752    c-3.158-11.163-6.422-22.706-9.497-34.376c-0.743-2.216-1.518-4.261-2.244-6.142c-3.166-7.491-6.7-15.035-10.118-22.331    c-0.849-1.812-1.697-3.623-2.541-5.436c-0.335-0.681-0.688-1.388-1.047-2.105c-0.328-0.656-0.66-1.321-1.001-2.013    C213.581,19.439,174.636-2.044,119.58,5.462c-8.113,1.106-16.706,3.303-24.849,6.351c-1.465,0.565-2.808,1.109-4.086,1.655    c-12.252,5.603-22.396,11.53-30.962,18.104c-3.485,2.675-6.437,5.247-9.288,8.096c-2.803,2.938-5.543,6.088-8.111,9.33    c-2.756,3.479-5.108,6.799-7.403,10.446c-3.018,4.921-5.798,9.836-8.25,14.591c-0.84,1.629-1.663,3.28-2.447,4.91    c-7.783,19.607-12.985,41.594-15.903,67.213c-0.238,2.218-0.459,4.429-0.664,6.74c-0.336,2.732-0.698,5.42-1.063,8.126    c-0.909,6.742-1.849,13.713-2.289,20.602c-0.124,2.078-0.195,3.994-0.217,5.849c-0.527,15.035,3.457,28.363,7.674,42.474    c1.553,5.196,3.159,10.57,4.529,16.048c0.021,0.087,0.038,0.175,0.047,0.264c0.167,1.497,0.237,3.022,0.216,4.666    c-0.018,1.354-0.099,2.811-0.249,4.452c-1.16,9.905-0.998,20.019,0.491,30.968c0.361,2.332,0.731,4.4,1.161,6.469    c2.042,7.47,4.292,15.04,6.469,22.361c0.637,2.145,1.274,4.287,1.906,6.428c0.572,2.019,1.132,4.014,1.683,6.076    c0.03,0.114,0.051,0.231,0.061,0.35c0.73,8.788,2.434,17.978,5.209,28.096c0.484,1.763,1.009,3.588,1.562,5.425    c5.332,14.348,9.688,26.32,13.709,37.673c0.412,0.983,0.808,1.946,1.205,2.911c0.424,1.033,0.85,2.069,1.297,3.133    c2.759,5.028,5.108,10.544,7.388,17.347c0.625,1.859,1.249,3.814,1.961,6.15c2.88,10.554,7.076,20.838,11.129,30.473l2.554,6.053    c0.014,0.032,0.026,0.064,0.038,0.098c2.895,8.007,6.487,15.849,9.961,23.433c6.166,13.459,12.54,27.375,15.116,42.513    l1.784,4.313c16.728,40.51,28.108,70.474,22.156,87.154c-0.473,1.325-1.06,2.578-1.747,3.726    c-0.043,0.072-0.091,0.142-0.143,0.208c-3.763,4.793-8.318,9.166-13.924,13.368c-1.738,1.291-3.456,2.481-5.258,3.646    c-3.289,1.98-6.762,3.855-10.121,5.668c-13.015,7.024-26.473,14.288-31.933,28.447c-0.551,1.406-1.031,2.878-1.429,4.386    c-1.563,5.918-2.022,12.884-1.398,21.247l171.91,1.313c2.643-11.895,2.844-24.166,3.04-36.05    c0.109-6.619,0.222-13.464,0.77-20.013c0.257-4.148,0.444-6.741,0.444-6.741c0.06-0.827,0.623-1.531,1.417-1.771    c0.792-0.241,1.653,0.035,2.16,0.691l9.888,12.784c1.485,1.697,2.91,3.667,4.418,5.752c1.67,2.308,3.396,4.694,5.291,6.814    c0.032,0.036,0.062,0.072,0.091,0.11c1.217,1.576,14.654,18.954,23.252,30.075l7.06,9.13c0.675,0.874,0.515,2.131-0.359,2.806    c-0.874,0.678-2.129,0.516-2.806-0.358l-7.059-9.131c-8.507-11.003-21.749-28.13-23.21-30.021    c-2.012-2.259-3.786-4.71-5.501-7.082c-1.465-2.025-2.85-3.938-4.225-5.505c-0.027-0.03-0.053-0.062-0.079-0.095l-6.7-8.66    c-0.03,0.471-0.061,0.969-0.094,1.492c-0.54,6.457-0.646,12.933-0.759,19.787c-0.208,12.616-0.422,25.661-3.508,38.465    C232.376,708.186,231.572,708.819,230.649,708.819z"/>
	</g>
	<g>
		<path fill="#22183B" d="M331.977,708.813h-71.294c-1.104,0-2-0.896-2-2s0.896-2,2-2h67.538c-8.27-12.346-16.472-25.2-24.412-38.26    c-0.942-1.55-1.879-3.101-2.806-4.653c-5.202-9.687-10.858-18.877-16.328-27.765c-5.541-9.002-11.27-18.312-16.507-28.092    c-1.098-2.109-2.076-4.035-2.999-5.907c-2.799-5.688-5.141-11.063-7.156-16.432c-1.034-2.071-2.06-4.135-3.079-6.197    c-12.754-25.725-25.091-52.8-36.668-80.474c-0.85-2.031-1.692-4.06-2.507-6.069c-0.069-0.17-0.114-0.348-0.134-0.53    c-2.424-21.835-12.517-40.286-22.069-55.456c-0.064-0.101-0.118-0.208-0.163-0.318c-0.835-2.075-1.531-4.035-2.172-5.865    c-3.228-9.312-6.06-18.741-8.42-28.034c-0.784-3.084-1.545-6.259-2.327-9.703c-1.553-5.191-3.375-10.367-5.113-15.188l-1.86-5.17    c-1.84-5.915-3.391-11.916-4.952-18.063l-0.367-1.445c-0.387-1.525-0.774-3.052-1.166-4.578    c-2.157-10.432-5.882-20.386-9.484-30.013c-2.463-6.583-5.01-13.391-6.999-20.206c-0.01-0.035-0.019-0.07-0.027-0.105    c-0.367-1.565-0.707-3.145-1.012-4.69c-0.313-1.587-0.599-3.181-0.847-4.74c-0.49-2.149-0.959-4.114-1.437-6.006    c-0.539-2.137-1.068-4.105-1.617-6.019c-0.01-0.035-0.019-0.07-0.027-0.106c-0.457-2.002-0.923-3.94-1.401-5.871    c-1.575-6.177-3.11-11.602-4.688-16.569c-0.587-2.189-1.157-4.289-1.732-6.389c-1.552-5.655-3.148-11.312-4.746-16.97l-0.55-1.949    c-0.013-0.045-0.024-0.092-0.034-0.138c-0.442-2.14-0.854-4.232-1.263-6.33c-0.657-3.512-1.302-7.022-1.949-10.547    c-0.485-2.645-0.973-5.297-1.466-7.959l-0.395-2.179c-0.191-1.088,0.536-2.125,1.624-2.315c1.085-0.188,2.125,0.536,2.315,1.624    l0.389,2.142c0.494,2.663,0.981,5.318,1.467,7.965c0.646,3.521,1.29,7.026,1.944,10.52c0.398,2.046,0.802,4.101,1.236,6.2    l0.531,1.881c1.6,5.667,3.199,11.332,4.753,16.998c0.578,2.108,1.15,4.216,1.713,6.324c1.576,4.953,3.132,10.45,4.729,16.717    c0.483,1.95,0.951,3.895,1.409,5.902c0.556,1.938,1.091,3.931,1.636,6.09c0.49,1.941,0.971,3.956,1.473,6.16    c0.01,0.044,0.018,0.087,0.025,0.131c0.243,1.531,0.522,3.099,0.831,4.658c0.293,1.484,0.62,2.999,0.971,4.503    c1.945,6.656,4.459,13.375,6.891,19.872c3.655,9.77,7.435,19.871,9.633,30.514c0.372,1.437,0.76,2.967,1.147,4.496l0.366,1.444    c1.547,6.094,3.084,12.039,4.868,17.778l1.831,5.085c1.764,4.894,3.616,10.155,5.201,15.463c0.013,0.043,0.024,0.086,0.034,0.13    c0.78,3.436,1.538,6.599,2.318,9.669c2.333,9.184,5.132,18.504,8.32,27.702c0.606,1.73,1.265,3.585,2.04,5.522    c9.726,15.461,19.974,34.273,22.533,56.716c0.777,1.913,1.58,3.842,2.388,5.774c11.544,27.594,23.846,54.592,36.563,80.242    c1.033,2.093,2.072,4.182,3.119,6.278c0.031,0.062,0.059,0.127,0.083,0.191c1.977,5.276,4.278,10.564,7.036,16.166    c0.91,1.845,1.874,3.744,2.948,5.807c5.17,9.654,10.867,18.911,16.376,27.863c5.5,8.938,11.188,18.179,16.401,27.891    c0.876,1.465,1.808,3.006,2.744,4.546c8.579,14.109,17.463,27.978,26.407,41.219c0.414,0.612,0.456,1.404,0.109,2.058    S332.716,708.813,331.977,708.813z"/>
	</g>
</g>
</g></g></g><!--ITEM 14--><g><defs><clipPath id="clip-path-id-viewbox-item-14"><rect x="0.0" y="0.0" width="120.457" height="129.486"/></clipPath></defs><g transform="translate(384.0 999.0) rotate(18.481229348553935 89.5 96.0) scale(1.4860074549424276 1.482785783791298)"><g clip-path="url(#clip-path-id-viewbox-item-14)" transform="translate(-0.0 -0.0)"><path fill="#1F78F0" d="M120.457,16.965c0,0-21.643-9.512-32.465-14.268c-1.202-0.528-2.271-0.998-3.162-1.389  C84.042,0,83.042,0,82.042,0c-4.5,9-7.347,18.413-11.078,27.473c-0.433,1.048-0.875,2.089-1.332,3.173  C66.042,42,62.042,52,54.857,61.771c-0.536,1.215-1.046,2.376-1.522,3.459c-2.379,5.413-3.896,8.864-3.896,8.864L16.911,59.797  L0,98.273c0,0,3.985,1.751,9.165,4.028c0.74,0.325,1.504,0.661,2.285,1.004c4.83,1.123,9.731,2.472,14.504,4.237  c0.968,0.367,1.93,0.749,2.91,1.174C41.042,114,50.042,124,63.109,126.022c1.143,0.498,2.217,0.969,3.176,1.391  c2.877,1.264,4.718,2.074,4.718,2.074l0.002-0.006l0.006,0.003c0,0,1.439-3.273,3.477-7.91c0.291-0.662,0.595-1.353,0.908-2.065  c2.324-4.754,3.485-10.131,5.066-15.444c0.323-1.123,0.662-2.242,1.038-3.41c1.476-5.272,4.074-9.91,6.895-14.498  c0.564-0.918,1.137-1.833,1.712-2.751C99.042,74,105.042,63,106.132,49.576c0.325-0.76,0.663-1.527,0.998-2.29  C114.174,31.259,120.457,16.965,120.457,16.965z"/>
</g></g></g><!--ITEM 15--><g><defs><clipPath id="clip-path-id-viewbox-item-15"><rect x="0.0" y="0.0" width="83.325" height="83.325"/></clipPath></defs><g transform="translate(339.0 1634.0) rotate(-32.383156962484804 91.0 91.0) scale(2.1842184218421843 2.1842184218421843)"><g clip-path="url(#clip-path-id-viewbox-item-15)" transform="translate(-0.0 -0.0)"><path fill="#d360ef" d="M83.325,44.573l-6.941-26.119l-25.132,6.678L44.573,0L18.454,6.941c0,0,0.417,1.571,1.044,3.927  c0.626,2.356,1.461,5.498,2.255,8.639c2.519,4.056,1.519,9.056,3.519,13.056c-1,0-3,0-4.198,0.553  c-2.241,0.626-5.366,1.461-8.508,2.296C6.283,37.082,0,38.751,0,38.751l6.941,26.119l25.132-6.678l6.678,25.132l26.119-6.941  l-6.678-25.132L83.325,44.573z"/>
</g></g></g><!--ITEM 16--><g><defs><clipPath id="clip-path-id-viewbox-item-16"><rect x="0.0" y="0.0" width="120.624" height="176.504"/></clipPath></defs><g transform="translate(1509.0 391.0) rotate(0.0 102.5 150.5) scale(1.6994959543706063 1.7053437882427596)"><g clip-path="url(#clip-path-id-viewbox-item-16)" transform="translate(-0.0 -0.0)"><path d="M37.369,1.5c25.345,26.025,59.951,40.066,76.439,69.829c13.967,25.212-2.309,92.329-17.671,101.897  c-11.157,6.949-76.422-7.842-85.902-21.052C-0.898,136.661-2.433,75.157,11.52,52.431C20.849,37.238,41.217,24.895,37.369,1.5z" style="fill:#FFCE46;"/>
<path d="M85.735,176.504c-9.576,0-22.67-2.211-33.524-4.785c-17.357-4.116-37.82-11.182-43.194-18.67  C-2.601,136.862-3.818,74.546,10.241,51.646c2.729-4.444,6.269-8.522,10.017-12.84c8.98-10.345,18.266-21.042,15.631-37.062  c-0.106-0.646,0.22-1.288,0.805-1.583s1.293-0.178,1.75,0.292c9.871,10.135,21.28,18.526,32.313,26.642  c17.584,12.933,34.193,25.149,44.363,43.506c6.405,11.562,7.273,33.184,2.321,57.838c-3.804,18.936-11.621,40.522-20.512,46.06  C94.65,175.919,90.656,176.504,85.735,176.504z M39.304,5.542c0.699,15.095-8.544,25.742-16.78,35.23  c-3.665,4.222-7.126,8.21-9.726,12.443c-6.188,10.08-9.862,29.44-9.828,51.79c0.033,20.987,3.363,39.159,8.484,46.294  c3.969,5.53,20.626,12.563,41.449,17.5c20.256,4.803,37.71,6.1,42.44,3.153c6.931-4.316,14.808-22.453,19.156-44.104  c4.816-23.977,4.066-44.834-2.005-55.793c-9.851-17.783-26.203-29.811-43.517-42.544C58.944,22.131,48.601,14.525,39.304,5.542z" style="fill:#22183B;"/>
<path d="M90.375,44.112C75.721,58.727,46.679,77.724,37.707,88.251c-12.31-7.987-17.618-28.914-18.061-46.394  C29.228,30.719,40.337,19.315,37.402,1.5C53.662,18.192,73.732,29.96,90.375,44.112z" style="fill:#d360ef;"/>
<path d="M37.706,89.751c-0.281,0-0.564-0.079-0.815-0.242c-8.62-5.593-18.07-21.038-18.745-47.614  c-0.009-0.372,0.12-0.734,0.363-1.016c0.596-0.693,1.197-1.387,1.801-2.083C29.282,28.454,38.56,17.759,35.922,1.744  c-0.106-0.646,0.22-1.287,0.804-1.583c0.584-0.295,1.294-0.178,1.751,0.292C48.336,10.575,59.73,18.96,70.749,27.068  c6.93,5.099,14.095,10.372,20.598,15.902c0.319,0.271,0.511,0.664,0.527,1.083s-0.143,0.826-0.439,1.122  c-7.233,7.214-17.757,15.344-27.934,23.207c-10.372,8.014-20.169,15.583-24.652,20.844C38.555,89.569,38.133,89.751,37.706,89.751z   M21.161,42.396c0.488,15.364,5.044,35.545,16.307,43.866c4.98-5.406,14.333-12.632,24.199-20.255  c9.562-7.387,19.432-15.013,26.479-21.811c-6.052-5.055-12.438-9.754-19.176-14.712C58.951,22.11,48.624,14.512,39.338,5.543  c0.701,15.089-8.533,25.734-16.762,35.22C22.102,41.308,21.631,41.852,21.161,42.396z" style="fill:#22183B;"/>
</g></g></g><!--ITEM 17--><g><defs><clipPath id="clip-path-id-viewbox-item-17"><rect x="0.0" y="0.0" width="107.831" height="134.728"/></clipPath></defs><g transform="translate(1434.0 122.0) rotate(-11.651200844655287 92.0 115.0) scale(1.7063738628038319 1.7071432812778338)"><g clip-path="url(#clip-path-id-viewbox-item-17)" transform="translate(-0.0 -0.0)"><ellipse transform="matrix(0.3989 -0.917 0.917 0.3989 -49.3245 111.6667)" cx="60.513" cy="93.456" rx="41.543" ry="28.702" style="fill:#d360ef;"/>
<path d="M52.158,134.728c-3.039,0-6.008-0.581-8.815-1.802c-7.496-3.261-12.691-10.484-14.631-20.339  c-1.899-9.654-0.441-20.727,4.105-31.178c9.467-21.765,29.593-34.065,44.865-27.423c15.271,6.643,19.993,29.754,10.526,51.518  C80.481,123.267,65.651,134.727,52.158,134.728z M68.776,55.163c-12.282,0-25.969,10.803-33.208,27.442  c-4.306,9.899-5.696,20.341-3.913,29.403c1.743,8.859,6.319,15.312,12.883,18.167c13.755,5.982,32.11-5.622,40.918-25.868  c8.807-20.248,4.783-41.588-8.971-47.571C74.035,55.671,71.439,55.163,68.776,55.163z M34.193,82.007h0.01H34.193z" style="fill:#22183B;"/>
<path d="M103.021,53.862c-4.152-6.223-10.611-9.377-19.198-9.377c-21.458,0-32.162-6.689-32.725-20.451  c-0.289-7.093-4.781-14.236-12.016-19.107c-6.87-4.626-14.536-6.108-20.51-3.962C12.281,3.223,7.216,8.003,3.923,14.787  c-2.564,5.281-3.993,11.715-3.92,17.651C0.289,55.942,18.117,60.52,36.991,65.367c11.675,2.998,23.748,6.098,32.852,13.783  c8.719,7.36,12.819,23.745,11.045,33.846c-0.107,0.612,0.174,1.227,0.708,1.546c0.238,0.143,0.504,0.213,0.77,0.213  c0.329,0,0.656-0.108,0.927-0.321c9.163-7.201,24.535-22.265,24.538-42.241C107.83,67.118,106.996,59.819,103.021,53.862z" style="fill:#22183B;"/>
</g></g></g><!--ITEM 18--><g><defs><clipPath id="clip-path-id-viewbox-item-18"><rect x="0.0" y="0.0" width="1728.7826" height="4.0"/></clipPath></defs><g transform="translate(57.0 1877.0) rotate(0.0 931.0 2.0) scale(1.0770585034810045 1.0)"><g clip-path="url(#clip-path-id-viewbox-item-18)" transform="translate(-0.0 -0.0)"><path d="M1726.7822,4H2A2,2,0,0,1,2,0H1726.7822a2,2,0,1,1,0,4Z" style="         fill: #22183b;       "/>
</g></g></g><!--ITEM 19--><g><defs><clipPath id="clip-path-id-viewbox-item-19"><rect x="0.0" y="0.0" width="97.365" height="91.88"/></clipPath></defs><g transform="translate(1294.0 748.0) rotate(-51.26180101038169 77.0 72.0) scale(1.5816771940635752 1.567261645624728)"><g clip-path="url(#clip-path-id-viewbox-item-19)" transform="translate(-0.0 -0.0)"><circle cx="35.438" cy="35.438" r="33.938" fill="#D360EF"/><path d="M35.43,70.86A35.423,35.423,0,1,1,61.1,59.876,35.316,35.316,0,0,1,35.43,70.86ZM35.459,3q-.407,0-.814.01A32.406,32.406,0,1,0,35.459,3Z" fill="#22183B"/><path d="M17.571,64.3C34.544,76.54,95.865,90.38,95.865,90.38S74.9,30.619,63.388,16.181Z" fill="#22183B"/><path d="M95.865,91.88a1.544,1.544,0,0,1-.33-.036C93.019,91.276,33.719,77.8,16.693,65.513a1.5,1.5,0,0,1-.208-2.251L62.3,15.146a1.5,1.5,0,0,1,2.259.1C76.094,29.717,96.421,87.434,97.28,89.884a1.5,1.5,0,0,1-1.415,2ZM19.879,64.048C35.929,74.286,81.953,85.565,93.531,88.3,89.51,77.1,73.246,32.677,63.25,18.5Z" fill="#22183B"/></g></g></g><!--ITEM 20--><g><defs><clipPath id="clip-path-id-viewbox-item-20"><rect x="0.0" y="0.0" width="83.187" height="82.853"/></clipPath></defs><g transform="translate(937.0 279.0) rotate(63.67612662899468 57.5 57.0) scale(1.3824275427650956 1.3759308655087927)"><g clip-path="url(#clip-path-id-viewbox-item-20)" transform="translate(-0.0 -0.0)"><g>
	<g>
		<circle fill="#D360EF" cx="41.761" cy="41.426" r="39.417"/>
		<g>
			<path fill="#22183B" d="M41.685,82.861c-7.493,0-14.864-2.048-21.431-6.038C10.8,71.077,4.148,61.995,1.525,51.248l0,0     C-3.891,29.062,9.754,6.606,31.94,1.19c22.186-5.415,44.642,8.229,50.057,30.415c5.416,22.187-8.229,44.643-30.415,50.059     C48.299,82.464,44.98,82.861,41.685,82.861z M5.41,50.299c2.37,9.71,8.379,17.915,16.92,23.105     c8.542,5.188,18.592,6.743,28.302,4.372c20.043-4.892,32.37-25.179,27.478-45.223c-2.37-9.71-8.379-17.915-16.92-23.105     C52.648,4.26,42.598,2.703,32.888,5.076C12.845,9.968,0.518,30.255,5.41,50.299L5.41,50.299z"/>
		</g>
	</g>
	<g>
		<path fill="#22183B" d="M66.643,13.292L14.935,66.857c0,0-26.411-26.395-2.281-51.665C35.127-8.342,66.643,13.292,66.643,13.292z"/>
		<path fill="#22183B" d="M14.967,70.411l-1.792-1.792c-0.281-0.281-27.838-28.425-2.322-55.147    c23.663-24.782,56.867-2.463,57.2-2.233l2.427,1.666L14.967,70.411z M37.942,6.693c-9.12,0-16.992,3.419-23.486,10.221    C5.2,26.607,2.701,37.57,7.031,49.496c2.256,6.216,5.869,11.146,7.98,13.696l47.674-49.387c-3.071-1.727-8.655-4.479-15.311-5.994    C44.098,7.066,40.951,6.693,37.942,6.693z"/>
	</g>
</g>
</g></g></g><!--ITEM 21--><g><defs><clipPath id="clip-path-id-crop-item-21"><rect transform="scale(0.7784129032258065 0.7766321893491125)" x="1" y="147" width="433.0" height="191.0"/></clipPath><clipPath id="clip-path-id-viewbox-item-21"><rect x="0.0" y="0.0" width="337.8312" height="262.50168"/></clipPath></defs><g clip-path="url(#clip-path-id-crop-item-21)" transform="translate(1392.0 452.0) rotate(-52.231458341620616 217.0 169.0) scale(1.2846652411026571 1.2876108069098833)"><g clip-path="url(#clip-path-id-viewbox-item-21)" transform="translate(-0.0 -0.0)"><g>
    <g>
      <circle cx="301.59541" cy="36.23627" r="34.74379" style="         fill: #d360ef;       "/>
      <path d="M301.5353,72.47239A36.23814,36.23814,0,1,1,332.74721,54.761h0A36.26087,36.26087,0,0,1,301.5353,72.47239ZM301.651,2.99973a33.23979,33.23979,0,1,0,28.51807,50.228h0A33.2325,33.2325,0,0,0,301.651,2.99973Z" style="         fill: #22183b;       "/>
      <g>
        <path d="M268.72143,24.97962c-8.35236,19.7297-8.19264,84.08579-8.19264,84.08579s54.867-34.54611,66.65532-49.32107Z" style="         fill: #22183b;       "/>
        <path d="M260.529,110.56565a1.50055,1.50055,0,0,1-1.5-1.4961c-.00635-2.64062-.064-64.89062,8.311-84.6748a1.49995,1.49995,0,0,1,2.14794-.7041l58.4629,34.76465a1.49971,1.49971,0,0,1,.40576,2.22461c-11.811,14.80322-64.7793,48.23877-67.02832,49.65527A1.50058,1.50058,0,0,1,260.529,110.56565Zm8.94775-83.3916c-6.58789,18.36035-7.35009,67.07275-7.437,79.15234,10.1792-6.51025,50.99365-32.97559,62.85254-46.19971Z" style="         fill: #22183b;       "/>
      </g>
    </g>
    <g>
      <path d="M15.15444,184.61106A15.00619,15.00619,0,0,1,.963,174.46262l-.16552-.4873a14.99985,14.99985,0,0,1,28.41308-9.627l.13721.40332a15.01041,15.01041,0,0,1-14.19336,19.85938Z" style="         fill: #22183b;       "/>
      <path d="M110.06655,262.50168a15.05321,15.05321,0,0,1-2.93555-.29l-1.03027-.20752a15,15,0,1,1,6.02539-29.38867l.84375.17041a15.00153,15.00153,0,0,1-2.90332,29.71582Zm61.84619-5.56445a15.00238,15.00238,0,0,1-6.82178-28.36865l.67432-.34912a15.0001,15.0001,0,1,1,13.96484,26.55175q-.50976.26808-1.02.52784A14.93737,14.93737,0,0,1,171.91274,256.93723Zm-119.543-21.14551a14.93353,14.93353,0,0,1-9.31836-3.2539l-.83447-.668a15,15,0,1,1,18.83594-23.34961l.65478.52441a15.0004,15.0004,0,0,1-9.33789,26.74707Zm165.8125-22.48584a15.00129,15.00129,0,0,1-12.0918-23.86035l.521-.71533a14.99994,14.99994,0,0,1,24.29,17.60644l-.603.82764A14.97978,14.97978,0,0,1,218.18227,213.30588Z" style="         fill: #22183b;       "/>
      <path d="M250.57485,158.05832a15.00791,15.00791,0,0,1-13.65234-21.19824l.1538-.34131a15.00012,15.00012,0,0,1,27.39746,12.22266l-.229.50732A15.00362,15.00362,0,0,1,250.57485,158.05832Z" style="         fill: #22183b;       "/>
    </g>
  </g>
</g></g></g></svg>